G04 EAGLE Gerber X2 export*
%TF.Part,Single*%
%TF.FileFunction,Copper,L3,Inr,Mixed*%
%TF.FilePolarity,Positive*%
%TF.GenerationSoftware,Autodesk,EAGLE,8.7.1*%
%TF.CreationDate,2018-04-20T19:54:14Z*%
G75*
%MOMM*%
%FSLAX34Y34*%
%LPD*%
%AMOC8*
5,1,8,0,0,1.08239X$1,22.5*%
G01*
%ADD10C,1.308000*%
%ADD11C,1.524000*%
%ADD12C,1.397000*%
%ADD13C,1.108000*%
%ADD14C,0.812800*%

G36*
X1595821Y2548D02*
X1595821Y2548D01*
X1595888Y2545D01*
X1596015Y2567D01*
X1596143Y2581D01*
X1596206Y2601D01*
X1596272Y2612D01*
X1596391Y2660D01*
X1596514Y2699D01*
X1596572Y2731D01*
X1596634Y2756D01*
X1596741Y2827D01*
X1596854Y2890D01*
X1596904Y2934D01*
X1596960Y2970D01*
X1597051Y3061D01*
X1597148Y3146D01*
X1597188Y3199D01*
X1597235Y3246D01*
X1597305Y3354D01*
X1597383Y3457D01*
X1597411Y3517D01*
X1597448Y3573D01*
X1597495Y3693D01*
X1597550Y3809D01*
X1597566Y3874D01*
X1597590Y3936D01*
X1597602Y4022D01*
X1597642Y4188D01*
X1597647Y4358D01*
X1597659Y4445D01*
X1597659Y630555D01*
X1597652Y630621D01*
X1597655Y630688D01*
X1597633Y630815D01*
X1597619Y630943D01*
X1597599Y631006D01*
X1597588Y631072D01*
X1597540Y631191D01*
X1597501Y631314D01*
X1597469Y631372D01*
X1597444Y631434D01*
X1597373Y631541D01*
X1597310Y631654D01*
X1597266Y631704D01*
X1597230Y631760D01*
X1597139Y631851D01*
X1597054Y631948D01*
X1597001Y631988D01*
X1596954Y632035D01*
X1596846Y632105D01*
X1596743Y632183D01*
X1596683Y632211D01*
X1596627Y632248D01*
X1596507Y632295D01*
X1596391Y632350D01*
X1596326Y632366D01*
X1596264Y632390D01*
X1596178Y632402D01*
X1596012Y632442D01*
X1595842Y632447D01*
X1595755Y632459D01*
X245745Y632459D01*
X245679Y632452D01*
X245612Y632455D01*
X245485Y632433D01*
X245357Y632419D01*
X245294Y632399D01*
X245228Y632388D01*
X245109Y632340D01*
X244986Y632301D01*
X244928Y632269D01*
X244866Y632244D01*
X244759Y632173D01*
X244646Y632110D01*
X244596Y632066D01*
X244540Y632030D01*
X244449Y631939D01*
X244352Y631854D01*
X244312Y631801D01*
X244265Y631754D01*
X244195Y631646D01*
X244117Y631543D01*
X244089Y631483D01*
X244052Y631427D01*
X244005Y631307D01*
X243950Y631191D01*
X243934Y631126D01*
X243910Y631064D01*
X243898Y630978D01*
X243858Y630812D01*
X243853Y630642D01*
X243841Y630555D01*
X243841Y4445D01*
X243848Y4379D01*
X243845Y4312D01*
X243867Y4185D01*
X243881Y4057D01*
X243901Y3994D01*
X243912Y3928D01*
X243960Y3809D01*
X243999Y3686D01*
X244031Y3628D01*
X244056Y3566D01*
X244127Y3459D01*
X244190Y3346D01*
X244234Y3296D01*
X244270Y3240D01*
X244361Y3149D01*
X244446Y3052D01*
X244499Y3012D01*
X244546Y2965D01*
X244654Y2895D01*
X244757Y2817D01*
X244817Y2789D01*
X244873Y2752D01*
X244993Y2705D01*
X245109Y2650D01*
X245174Y2634D01*
X245236Y2610D01*
X245322Y2598D01*
X245488Y2558D01*
X245658Y2553D01*
X245745Y2541D01*
X1595755Y2541D01*
X1595821Y2548D01*
G37*
%LPC*%
G36*
X362469Y608329D02*
X362469Y608329D01*
X358734Y609876D01*
X355876Y612734D01*
X354329Y616469D01*
X354329Y620511D01*
X355876Y624246D01*
X358734Y627104D01*
X362469Y628651D01*
X366511Y628651D01*
X370246Y627104D01*
X373104Y624246D01*
X374651Y620511D01*
X374651Y616469D01*
X373104Y612734D01*
X370246Y609876D01*
X366511Y608329D01*
X362469Y608329D01*
G37*
%LPD*%
%LPC*%
G36*
X337069Y608329D02*
X337069Y608329D01*
X333334Y609876D01*
X330476Y612734D01*
X328929Y616469D01*
X328929Y620511D01*
X330476Y624246D01*
X333334Y627104D01*
X337069Y628651D01*
X341111Y628651D01*
X344846Y627104D01*
X347704Y624246D01*
X349251Y620511D01*
X349251Y616469D01*
X347704Y612734D01*
X344846Y609876D01*
X341111Y608329D01*
X337069Y608329D01*
G37*
%LPD*%
%LPC*%
G36*
X1113039Y608329D02*
X1113039Y608329D01*
X1109304Y609876D01*
X1106446Y612734D01*
X1104899Y616469D01*
X1104899Y620511D01*
X1106446Y624246D01*
X1109304Y627104D01*
X1113039Y628651D01*
X1117081Y628651D01*
X1120816Y627104D01*
X1123674Y624246D01*
X1125221Y620511D01*
X1125221Y616469D01*
X1123674Y612734D01*
X1120816Y609876D01*
X1117081Y608329D01*
X1113039Y608329D01*
G37*
%LPD*%
%LPC*%
G36*
X1087639Y608329D02*
X1087639Y608329D01*
X1083904Y609876D01*
X1081046Y612734D01*
X1079499Y616469D01*
X1079499Y620511D01*
X1081046Y624246D01*
X1083904Y627104D01*
X1087639Y628651D01*
X1091681Y628651D01*
X1095416Y627104D01*
X1098274Y624246D01*
X1099821Y620511D01*
X1099821Y616469D01*
X1098274Y612734D01*
X1095416Y609876D01*
X1091681Y608329D01*
X1087639Y608329D01*
G37*
%LPD*%
%LPC*%
G36*
X1062239Y608329D02*
X1062239Y608329D01*
X1058504Y609876D01*
X1055646Y612734D01*
X1054099Y616469D01*
X1054099Y620511D01*
X1055646Y624246D01*
X1058504Y627104D01*
X1062239Y628651D01*
X1066281Y628651D01*
X1070016Y627104D01*
X1072874Y624246D01*
X1074421Y620511D01*
X1074421Y616469D01*
X1072874Y612734D01*
X1070016Y609876D01*
X1066281Y608329D01*
X1062239Y608329D01*
G37*
%LPD*%
%LPC*%
G36*
X1036839Y608329D02*
X1036839Y608329D01*
X1033104Y609876D01*
X1030246Y612734D01*
X1028699Y616469D01*
X1028699Y620511D01*
X1030246Y624246D01*
X1033104Y627104D01*
X1036839Y628651D01*
X1040881Y628651D01*
X1044616Y627104D01*
X1047474Y624246D01*
X1049021Y620511D01*
X1049021Y616469D01*
X1047474Y612734D01*
X1044616Y609876D01*
X1040881Y608329D01*
X1036839Y608329D01*
G37*
%LPD*%
%LPC*%
G36*
X387869Y608329D02*
X387869Y608329D01*
X384134Y609876D01*
X381276Y612734D01*
X379729Y616469D01*
X379729Y620511D01*
X381276Y624246D01*
X384134Y627104D01*
X387869Y628651D01*
X391911Y628651D01*
X395646Y627104D01*
X398504Y624246D01*
X400051Y620511D01*
X400051Y616469D01*
X398504Y612734D01*
X395646Y609876D01*
X391911Y608329D01*
X387869Y608329D01*
G37*
%LPD*%
%LPC*%
G36*
X311669Y608329D02*
X311669Y608329D01*
X307934Y609876D01*
X305076Y612734D01*
X303529Y616469D01*
X303529Y620511D01*
X305076Y624246D01*
X307934Y627104D01*
X311669Y628651D01*
X315711Y628651D01*
X319446Y627104D01*
X322304Y624246D01*
X323851Y620511D01*
X323851Y616469D01*
X322304Y612734D01*
X319446Y609876D01*
X315711Y608329D01*
X311669Y608329D01*
G37*
%LPD*%
%LPC*%
G36*
X795405Y149814D02*
X795405Y149814D01*
X791904Y151264D01*
X789224Y153944D01*
X787774Y157445D01*
X787774Y161235D01*
X789224Y164736D01*
X791904Y167416D01*
X795405Y168866D01*
X799195Y168866D01*
X802696Y167416D01*
X805376Y164736D01*
X806826Y161235D01*
X806826Y157445D01*
X805376Y153944D01*
X802696Y151264D01*
X799195Y149814D01*
X795405Y149814D01*
G37*
%LPD*%
%LPC*%
G36*
X820805Y149814D02*
X820805Y149814D01*
X817304Y151264D01*
X814624Y153944D01*
X813174Y157445D01*
X813174Y161235D01*
X814624Y164736D01*
X817304Y167416D01*
X820805Y168866D01*
X824595Y168866D01*
X828096Y167416D01*
X830776Y164736D01*
X832226Y161235D01*
X832226Y157445D01*
X830776Y153944D01*
X828096Y151264D01*
X824595Y149814D01*
X820805Y149814D01*
G37*
%LPD*%
%LPC*%
G36*
X541405Y175214D02*
X541405Y175214D01*
X537904Y176664D01*
X535224Y179344D01*
X533774Y182845D01*
X533774Y186635D01*
X535224Y190136D01*
X537904Y192816D01*
X541405Y194266D01*
X545195Y194266D01*
X548696Y192816D01*
X551376Y190136D01*
X552826Y186635D01*
X552826Y182845D01*
X551376Y179344D01*
X548696Y176664D01*
X545195Y175214D01*
X541405Y175214D01*
G37*
%LPD*%
%LPC*%
G36*
X566805Y175214D02*
X566805Y175214D01*
X563304Y176664D01*
X560624Y179344D01*
X559174Y182845D01*
X559174Y186635D01*
X560624Y190136D01*
X563304Y192816D01*
X566805Y194266D01*
X570595Y194266D01*
X574096Y192816D01*
X576776Y190136D01*
X578226Y186635D01*
X578226Y182845D01*
X576776Y179344D01*
X574096Y176664D01*
X570595Y175214D01*
X566805Y175214D01*
G37*
%LPD*%
%LPC*%
G36*
X795405Y175214D02*
X795405Y175214D01*
X791904Y176664D01*
X789224Y179344D01*
X787774Y182845D01*
X787774Y186635D01*
X789224Y190136D01*
X791904Y192816D01*
X795405Y194266D01*
X799195Y194266D01*
X802696Y192816D01*
X805376Y190136D01*
X806826Y186635D01*
X806826Y182845D01*
X805376Y179344D01*
X802696Y176664D01*
X799195Y175214D01*
X795405Y175214D01*
G37*
%LPD*%
%LPC*%
G36*
X820805Y175214D02*
X820805Y175214D01*
X817304Y176664D01*
X814624Y179344D01*
X813174Y182845D01*
X813174Y186635D01*
X814624Y190136D01*
X817304Y192816D01*
X820805Y194266D01*
X824595Y194266D01*
X828096Y192816D01*
X830776Y190136D01*
X832226Y186635D01*
X832226Y182845D01*
X830776Y179344D01*
X828096Y176664D01*
X824595Y175214D01*
X820805Y175214D01*
G37*
%LPD*%
%LPC*%
G36*
X795405Y200614D02*
X795405Y200614D01*
X791904Y202064D01*
X789224Y204744D01*
X787774Y208245D01*
X787774Y212035D01*
X789224Y215536D01*
X791904Y218216D01*
X795405Y219666D01*
X799195Y219666D01*
X802696Y218216D01*
X805376Y215536D01*
X806826Y212035D01*
X806826Y208245D01*
X805376Y204744D01*
X802696Y202064D01*
X799195Y200614D01*
X795405Y200614D01*
G37*
%LPD*%
%LPC*%
G36*
X820805Y200614D02*
X820805Y200614D01*
X817304Y202064D01*
X814624Y204744D01*
X813174Y208245D01*
X813174Y212035D01*
X814624Y215536D01*
X817304Y218216D01*
X820805Y219666D01*
X824595Y219666D01*
X828096Y218216D01*
X830776Y215536D01*
X832226Y212035D01*
X832226Y208245D01*
X830776Y204744D01*
X828096Y202064D01*
X824595Y200614D01*
X820805Y200614D01*
G37*
%LPD*%
%LPC*%
G36*
X541405Y200614D02*
X541405Y200614D01*
X537904Y202064D01*
X535224Y204744D01*
X533774Y208245D01*
X533774Y212035D01*
X535224Y215536D01*
X537904Y218216D01*
X541405Y219666D01*
X545195Y219666D01*
X548696Y218216D01*
X551376Y215536D01*
X552826Y212035D01*
X552826Y208245D01*
X551376Y204744D01*
X548696Y202064D01*
X545195Y200614D01*
X541405Y200614D01*
G37*
%LPD*%
%LPC*%
G36*
X820805Y480014D02*
X820805Y480014D01*
X817304Y481464D01*
X814624Y484144D01*
X813174Y487645D01*
X813174Y491435D01*
X814624Y494936D01*
X817304Y497616D01*
X820805Y499066D01*
X824595Y499066D01*
X828096Y497616D01*
X830776Y494936D01*
X832226Y491435D01*
X832226Y487645D01*
X830776Y484144D01*
X828096Y481464D01*
X824595Y480014D01*
X820805Y480014D01*
G37*
%LPD*%
%LPC*%
G36*
X566805Y200614D02*
X566805Y200614D01*
X563304Y202064D01*
X560624Y204744D01*
X559174Y208245D01*
X559174Y212035D01*
X560624Y215536D01*
X563304Y218216D01*
X566805Y219666D01*
X570595Y219666D01*
X574096Y218216D01*
X576776Y215536D01*
X578226Y212035D01*
X578226Y208245D01*
X576776Y204744D01*
X574096Y202064D01*
X570595Y200614D01*
X566805Y200614D01*
G37*
%LPD*%
%LPC*%
G36*
X541405Y226014D02*
X541405Y226014D01*
X537904Y227464D01*
X535224Y230144D01*
X533774Y233645D01*
X533774Y237435D01*
X535224Y240936D01*
X537904Y243616D01*
X541405Y245066D01*
X545195Y245066D01*
X548696Y243616D01*
X551376Y240936D01*
X552826Y237435D01*
X552826Y233645D01*
X551376Y230144D01*
X548696Y227464D01*
X545195Y226014D01*
X541405Y226014D01*
G37*
%LPD*%
%LPC*%
G36*
X566805Y226014D02*
X566805Y226014D01*
X563304Y227464D01*
X560624Y230144D01*
X559174Y233645D01*
X559174Y237435D01*
X560624Y240936D01*
X563304Y243616D01*
X566805Y245066D01*
X570595Y245066D01*
X574096Y243616D01*
X576776Y240936D01*
X578226Y237435D01*
X578226Y233645D01*
X576776Y230144D01*
X574096Y227464D01*
X570595Y226014D01*
X566805Y226014D01*
G37*
%LPD*%
%LPC*%
G36*
X795405Y226014D02*
X795405Y226014D01*
X791904Y227464D01*
X789224Y230144D01*
X787774Y233645D01*
X787774Y237435D01*
X789224Y240936D01*
X791904Y243616D01*
X795405Y245066D01*
X799195Y245066D01*
X802696Y243616D01*
X805376Y240936D01*
X806826Y237435D01*
X806826Y233645D01*
X805376Y230144D01*
X802696Y227464D01*
X799195Y226014D01*
X795405Y226014D01*
G37*
%LPD*%
%LPC*%
G36*
X820805Y226014D02*
X820805Y226014D01*
X817304Y227464D01*
X814624Y230144D01*
X813174Y233645D01*
X813174Y237435D01*
X814624Y240936D01*
X817304Y243616D01*
X820805Y245066D01*
X824595Y245066D01*
X828096Y243616D01*
X830776Y240936D01*
X832226Y237435D01*
X832226Y233645D01*
X830776Y230144D01*
X828096Y227464D01*
X824595Y226014D01*
X820805Y226014D01*
G37*
%LPD*%
%LPC*%
G36*
X541405Y251414D02*
X541405Y251414D01*
X537904Y252864D01*
X535224Y255544D01*
X533774Y259045D01*
X533774Y262835D01*
X535224Y266336D01*
X537904Y269016D01*
X541405Y270466D01*
X545195Y270466D01*
X548696Y269016D01*
X551376Y266336D01*
X552826Y262835D01*
X552826Y259045D01*
X551376Y255544D01*
X548696Y252864D01*
X545195Y251414D01*
X541405Y251414D01*
G37*
%LPD*%
%LPC*%
G36*
X566805Y353014D02*
X566805Y353014D01*
X563304Y354464D01*
X560624Y357144D01*
X559174Y360645D01*
X559174Y364435D01*
X560624Y367936D01*
X563304Y370616D01*
X566805Y372066D01*
X570595Y372066D01*
X574096Y370616D01*
X576776Y367936D01*
X578226Y364435D01*
X578226Y360645D01*
X576776Y357144D01*
X574096Y354464D01*
X570595Y353014D01*
X566805Y353014D01*
G37*
%LPD*%
%LPC*%
G36*
X541405Y353014D02*
X541405Y353014D01*
X537904Y354464D01*
X535224Y357144D01*
X533774Y360645D01*
X533774Y364435D01*
X535224Y367936D01*
X537904Y370616D01*
X541405Y372066D01*
X545195Y372066D01*
X548696Y370616D01*
X551376Y367936D01*
X552826Y364435D01*
X552826Y360645D01*
X551376Y357144D01*
X548696Y354464D01*
X545195Y353014D01*
X541405Y353014D01*
G37*
%LPD*%
%LPC*%
G36*
X820805Y505414D02*
X820805Y505414D01*
X817304Y506864D01*
X814624Y509544D01*
X813174Y513045D01*
X813174Y516835D01*
X814624Y520336D01*
X817304Y523016D01*
X820805Y524466D01*
X824595Y524466D01*
X828096Y523016D01*
X830776Y520336D01*
X832226Y516835D01*
X832226Y513045D01*
X830776Y509544D01*
X828096Y506864D01*
X824595Y505414D01*
X820805Y505414D01*
G37*
%LPD*%
%LPC*%
G36*
X795405Y505414D02*
X795405Y505414D01*
X791904Y506864D01*
X789224Y509544D01*
X787774Y513045D01*
X787774Y516835D01*
X789224Y520336D01*
X791904Y523016D01*
X795405Y524466D01*
X799195Y524466D01*
X802696Y523016D01*
X805376Y520336D01*
X806826Y516835D01*
X806826Y513045D01*
X805376Y509544D01*
X802696Y506864D01*
X799195Y505414D01*
X795405Y505414D01*
G37*
%LPD*%
%LPC*%
G36*
X566805Y505414D02*
X566805Y505414D01*
X563304Y506864D01*
X560624Y509544D01*
X559174Y513045D01*
X559174Y516835D01*
X560624Y520336D01*
X563304Y523016D01*
X566805Y524466D01*
X570595Y524466D01*
X574096Y523016D01*
X576776Y520336D01*
X578226Y516835D01*
X578226Y513045D01*
X576776Y509544D01*
X574096Y506864D01*
X570595Y505414D01*
X566805Y505414D01*
G37*
%LPD*%
%LPC*%
G36*
X541405Y505414D02*
X541405Y505414D01*
X537904Y506864D01*
X535224Y509544D01*
X533774Y513045D01*
X533774Y516835D01*
X535224Y520336D01*
X537904Y523016D01*
X541405Y524466D01*
X545195Y524466D01*
X548696Y523016D01*
X551376Y520336D01*
X552826Y516835D01*
X552826Y513045D01*
X551376Y509544D01*
X548696Y506864D01*
X545195Y505414D01*
X541405Y505414D01*
G37*
%LPD*%
%LPC*%
G36*
X820805Y327614D02*
X820805Y327614D01*
X817304Y329064D01*
X814624Y331744D01*
X813174Y335245D01*
X813174Y339035D01*
X814624Y342536D01*
X817304Y345216D01*
X820805Y346666D01*
X824595Y346666D01*
X828096Y345216D01*
X830776Y342536D01*
X832226Y339035D01*
X832226Y335245D01*
X830776Y331744D01*
X828096Y329064D01*
X824595Y327614D01*
X820805Y327614D01*
G37*
%LPD*%
%LPC*%
G36*
X795405Y251414D02*
X795405Y251414D01*
X791904Y252864D01*
X789224Y255544D01*
X787774Y259045D01*
X787774Y262835D01*
X789224Y266336D01*
X791904Y269016D01*
X795405Y270466D01*
X799195Y270466D01*
X802696Y269016D01*
X805376Y266336D01*
X806826Y262835D01*
X806826Y259045D01*
X805376Y255544D01*
X802696Y252864D01*
X799195Y251414D01*
X795405Y251414D01*
G37*
%LPD*%
%LPC*%
G36*
X820805Y251414D02*
X820805Y251414D01*
X817304Y252864D01*
X814624Y255544D01*
X813174Y259045D01*
X813174Y262835D01*
X814624Y266336D01*
X817304Y269016D01*
X820805Y270466D01*
X824595Y270466D01*
X828096Y269016D01*
X830776Y266336D01*
X832226Y262835D01*
X832226Y259045D01*
X830776Y255544D01*
X828096Y252864D01*
X824595Y251414D01*
X820805Y251414D01*
G37*
%LPD*%
%LPC*%
G36*
X541405Y276814D02*
X541405Y276814D01*
X537904Y278264D01*
X535224Y280944D01*
X533774Y284445D01*
X533774Y288235D01*
X535224Y291736D01*
X537904Y294416D01*
X541405Y295866D01*
X545195Y295866D01*
X548696Y294416D01*
X551376Y291736D01*
X552826Y288235D01*
X552826Y284445D01*
X551376Y280944D01*
X548696Y278264D01*
X545195Y276814D01*
X541405Y276814D01*
G37*
%LPD*%
%LPC*%
G36*
X566805Y276814D02*
X566805Y276814D01*
X563304Y278264D01*
X560624Y280944D01*
X559174Y284445D01*
X559174Y288235D01*
X560624Y291736D01*
X563304Y294416D01*
X566805Y295866D01*
X570595Y295866D01*
X574096Y294416D01*
X576776Y291736D01*
X578226Y288235D01*
X578226Y284445D01*
X576776Y280944D01*
X574096Y278264D01*
X570595Y276814D01*
X566805Y276814D01*
G37*
%LPD*%
%LPC*%
G36*
X795405Y276814D02*
X795405Y276814D01*
X791904Y278264D01*
X789224Y280944D01*
X787774Y284445D01*
X787774Y288235D01*
X789224Y291736D01*
X791904Y294416D01*
X795405Y295866D01*
X799195Y295866D01*
X802696Y294416D01*
X805376Y291736D01*
X806826Y288235D01*
X806826Y284445D01*
X805376Y280944D01*
X802696Y278264D01*
X799195Y276814D01*
X795405Y276814D01*
G37*
%LPD*%
%LPC*%
G36*
X795405Y480014D02*
X795405Y480014D01*
X791904Y481464D01*
X789224Y484144D01*
X787774Y487645D01*
X787774Y491435D01*
X789224Y494936D01*
X791904Y497616D01*
X795405Y499066D01*
X799195Y499066D01*
X802696Y497616D01*
X805376Y494936D01*
X806826Y491435D01*
X806826Y487645D01*
X805376Y484144D01*
X802696Y481464D01*
X799195Y480014D01*
X795405Y480014D01*
G37*
%LPD*%
%LPC*%
G36*
X566805Y480014D02*
X566805Y480014D01*
X563304Y481464D01*
X560624Y484144D01*
X559174Y487645D01*
X559174Y491435D01*
X560624Y494936D01*
X563304Y497616D01*
X566805Y499066D01*
X570595Y499066D01*
X574096Y497616D01*
X576776Y494936D01*
X578226Y491435D01*
X578226Y487645D01*
X576776Y484144D01*
X574096Y481464D01*
X570595Y480014D01*
X566805Y480014D01*
G37*
%LPD*%
%LPC*%
G36*
X541405Y480014D02*
X541405Y480014D01*
X537904Y481464D01*
X535224Y484144D01*
X533774Y487645D01*
X533774Y491435D01*
X535224Y494936D01*
X537904Y497616D01*
X541405Y499066D01*
X545195Y499066D01*
X548696Y497616D01*
X551376Y494936D01*
X552826Y491435D01*
X552826Y487645D01*
X551376Y484144D01*
X548696Y481464D01*
X545195Y480014D01*
X541405Y480014D01*
G37*
%LPD*%
%LPC*%
G36*
X820805Y276814D02*
X820805Y276814D01*
X817304Y278264D01*
X814624Y280944D01*
X813174Y284445D01*
X813174Y288235D01*
X814624Y291736D01*
X817304Y294416D01*
X820805Y295866D01*
X824595Y295866D01*
X828096Y294416D01*
X830776Y291736D01*
X832226Y288235D01*
X832226Y284445D01*
X830776Y280944D01*
X828096Y278264D01*
X824595Y276814D01*
X820805Y276814D01*
G37*
%LPD*%
%LPC*%
G36*
X820805Y454614D02*
X820805Y454614D01*
X817304Y456064D01*
X814624Y458744D01*
X813174Y462245D01*
X813174Y466035D01*
X814624Y469536D01*
X817304Y472216D01*
X820805Y473666D01*
X824595Y473666D01*
X828096Y472216D01*
X830776Y469536D01*
X832226Y466035D01*
X832226Y462245D01*
X830776Y458744D01*
X828096Y456064D01*
X824595Y454614D01*
X820805Y454614D01*
G37*
%LPD*%
%LPC*%
G36*
X795405Y454614D02*
X795405Y454614D01*
X791904Y456064D01*
X789224Y458744D01*
X787774Y462245D01*
X787774Y466035D01*
X789224Y469536D01*
X791904Y472216D01*
X795405Y473666D01*
X799195Y473666D01*
X802696Y472216D01*
X805376Y469536D01*
X806826Y466035D01*
X806826Y462245D01*
X805376Y458744D01*
X802696Y456064D01*
X799195Y454614D01*
X795405Y454614D01*
G37*
%LPD*%
%LPC*%
G36*
X566805Y454614D02*
X566805Y454614D01*
X563304Y456064D01*
X560624Y458744D01*
X559174Y462245D01*
X559174Y466035D01*
X560624Y469536D01*
X563304Y472216D01*
X566805Y473666D01*
X570595Y473666D01*
X574096Y472216D01*
X576776Y469536D01*
X578226Y466035D01*
X578226Y462245D01*
X576776Y458744D01*
X574096Y456064D01*
X570595Y454614D01*
X566805Y454614D01*
G37*
%LPD*%
%LPC*%
G36*
X541405Y454614D02*
X541405Y454614D01*
X537904Y456064D01*
X535224Y458744D01*
X533774Y462245D01*
X533774Y466035D01*
X535224Y469536D01*
X537904Y472216D01*
X541405Y473666D01*
X545195Y473666D01*
X548696Y472216D01*
X551376Y469536D01*
X552826Y466035D01*
X552826Y462245D01*
X551376Y458744D01*
X548696Y456064D01*
X545195Y454614D01*
X541405Y454614D01*
G37*
%LPD*%
%LPC*%
G36*
X820805Y429214D02*
X820805Y429214D01*
X817304Y430664D01*
X814624Y433344D01*
X813174Y436845D01*
X813174Y440635D01*
X814624Y444136D01*
X817304Y446816D01*
X820805Y448266D01*
X824595Y448266D01*
X828096Y446816D01*
X830776Y444136D01*
X832226Y440635D01*
X832226Y436845D01*
X830776Y433344D01*
X828096Y430664D01*
X824595Y429214D01*
X820805Y429214D01*
G37*
%LPD*%
%LPC*%
G36*
X795405Y429214D02*
X795405Y429214D01*
X791904Y430664D01*
X789224Y433344D01*
X787774Y436845D01*
X787774Y440635D01*
X789224Y444136D01*
X791904Y446816D01*
X795405Y448266D01*
X799195Y448266D01*
X802696Y446816D01*
X805376Y444136D01*
X806826Y440635D01*
X806826Y436845D01*
X805376Y433344D01*
X802696Y430664D01*
X799195Y429214D01*
X795405Y429214D01*
G37*
%LPD*%
%LPC*%
G36*
X566805Y429214D02*
X566805Y429214D01*
X563304Y430664D01*
X560624Y433344D01*
X559174Y436845D01*
X559174Y440635D01*
X560624Y444136D01*
X563304Y446816D01*
X566805Y448266D01*
X570595Y448266D01*
X574096Y446816D01*
X576776Y444136D01*
X578226Y440635D01*
X578226Y436845D01*
X576776Y433344D01*
X574096Y430664D01*
X570595Y429214D01*
X566805Y429214D01*
G37*
%LPD*%
%LPC*%
G36*
X541405Y429214D02*
X541405Y429214D01*
X537904Y430664D01*
X535224Y433344D01*
X533774Y436845D01*
X533774Y440635D01*
X535224Y444136D01*
X537904Y446816D01*
X541405Y448266D01*
X545195Y448266D01*
X548696Y446816D01*
X551376Y444136D01*
X552826Y440635D01*
X552826Y436845D01*
X551376Y433344D01*
X548696Y430664D01*
X545195Y429214D01*
X541405Y429214D01*
G37*
%LPD*%
%LPC*%
G36*
X566805Y403814D02*
X566805Y403814D01*
X563304Y405264D01*
X560624Y407944D01*
X559174Y411445D01*
X559174Y415235D01*
X560624Y418736D01*
X563304Y421416D01*
X566805Y422866D01*
X570595Y422866D01*
X574096Y421416D01*
X576776Y418736D01*
X578226Y415235D01*
X578226Y411445D01*
X576776Y407944D01*
X574096Y405264D01*
X570595Y403814D01*
X566805Y403814D01*
G37*
%LPD*%
%LPC*%
G36*
X541405Y403814D02*
X541405Y403814D01*
X537904Y405264D01*
X535224Y407944D01*
X533774Y411445D01*
X533774Y415235D01*
X535224Y418736D01*
X537904Y421416D01*
X541405Y422866D01*
X545195Y422866D01*
X548696Y421416D01*
X551376Y418736D01*
X552826Y415235D01*
X552826Y411445D01*
X551376Y407944D01*
X548696Y405264D01*
X545195Y403814D01*
X541405Y403814D01*
G37*
%LPD*%
%LPC*%
G36*
X820805Y403814D02*
X820805Y403814D01*
X817304Y405264D01*
X814624Y407944D01*
X813174Y411445D01*
X813174Y415235D01*
X814624Y418736D01*
X817304Y421416D01*
X820805Y422866D01*
X824595Y422866D01*
X828096Y421416D01*
X830776Y418736D01*
X832226Y415235D01*
X832226Y411445D01*
X830776Y407944D01*
X828096Y405264D01*
X824595Y403814D01*
X820805Y403814D01*
G37*
%LPD*%
%LPC*%
G36*
X795405Y403814D02*
X795405Y403814D01*
X791904Y405264D01*
X789224Y407944D01*
X787774Y411445D01*
X787774Y415235D01*
X789224Y418736D01*
X791904Y421416D01*
X795405Y422866D01*
X799195Y422866D01*
X802696Y421416D01*
X805376Y418736D01*
X806826Y415235D01*
X806826Y411445D01*
X805376Y407944D01*
X802696Y405264D01*
X799195Y403814D01*
X795405Y403814D01*
G37*
%LPD*%
%LPC*%
G36*
X541405Y327614D02*
X541405Y327614D01*
X537904Y329064D01*
X535224Y331744D01*
X533774Y335245D01*
X533774Y339035D01*
X535224Y342536D01*
X537904Y345216D01*
X541405Y346666D01*
X545195Y346666D01*
X548696Y345216D01*
X551376Y342536D01*
X552826Y339035D01*
X552826Y335245D01*
X551376Y331744D01*
X548696Y329064D01*
X545195Y327614D01*
X541405Y327614D01*
G37*
%LPD*%
%LPC*%
G36*
X566805Y302214D02*
X566805Y302214D01*
X563304Y303664D01*
X560624Y306344D01*
X559174Y309845D01*
X559174Y313635D01*
X560624Y317136D01*
X563304Y319816D01*
X566805Y321266D01*
X570595Y321266D01*
X574096Y319816D01*
X576776Y317136D01*
X578226Y313635D01*
X578226Y309845D01*
X576776Y306344D01*
X574096Y303664D01*
X570595Y302214D01*
X566805Y302214D01*
G37*
%LPD*%
%LPC*%
G36*
X795405Y302214D02*
X795405Y302214D01*
X791904Y303664D01*
X789224Y306344D01*
X787774Y309845D01*
X787774Y313635D01*
X789224Y317136D01*
X791904Y319816D01*
X795405Y321266D01*
X799195Y321266D01*
X802696Y319816D01*
X805376Y317136D01*
X806826Y313635D01*
X806826Y309845D01*
X805376Y306344D01*
X802696Y303664D01*
X799195Y302214D01*
X795405Y302214D01*
G37*
%LPD*%
%LPC*%
G36*
X820805Y302214D02*
X820805Y302214D01*
X817304Y303664D01*
X814624Y306344D01*
X813174Y309845D01*
X813174Y313635D01*
X814624Y317136D01*
X817304Y319816D01*
X820805Y321266D01*
X824595Y321266D01*
X828096Y319816D01*
X830776Y317136D01*
X832226Y313635D01*
X832226Y309845D01*
X830776Y306344D01*
X828096Y303664D01*
X824595Y302214D01*
X820805Y302214D01*
G37*
%LPD*%
%LPC*%
G36*
X820805Y378414D02*
X820805Y378414D01*
X817304Y379864D01*
X814624Y382544D01*
X813174Y386045D01*
X813174Y389835D01*
X814624Y393336D01*
X817304Y396016D01*
X820805Y397466D01*
X824595Y397466D01*
X828096Y396016D01*
X830776Y393336D01*
X832226Y389835D01*
X832226Y386045D01*
X830776Y382544D01*
X828096Y379864D01*
X824595Y378414D01*
X820805Y378414D01*
G37*
%LPD*%
%LPC*%
G36*
X795405Y378414D02*
X795405Y378414D01*
X791904Y379864D01*
X789224Y382544D01*
X787774Y386045D01*
X787774Y389835D01*
X789224Y393336D01*
X791904Y396016D01*
X795405Y397466D01*
X799195Y397466D01*
X802696Y396016D01*
X805376Y393336D01*
X806826Y389835D01*
X806826Y386045D01*
X805376Y382544D01*
X802696Y379864D01*
X799195Y378414D01*
X795405Y378414D01*
G37*
%LPD*%
%LPC*%
G36*
X566805Y378414D02*
X566805Y378414D01*
X563304Y379864D01*
X560624Y382544D01*
X559174Y386045D01*
X559174Y389835D01*
X560624Y393336D01*
X563304Y396016D01*
X566805Y397466D01*
X570595Y397466D01*
X574096Y396016D01*
X576776Y393336D01*
X578226Y389835D01*
X578226Y386045D01*
X576776Y382544D01*
X574096Y379864D01*
X570595Y378414D01*
X566805Y378414D01*
G37*
%LPD*%
%LPC*%
G36*
X541405Y378414D02*
X541405Y378414D01*
X537904Y379864D01*
X535224Y382544D01*
X533774Y386045D01*
X533774Y389835D01*
X535224Y393336D01*
X537904Y396016D01*
X541405Y397466D01*
X545195Y397466D01*
X548696Y396016D01*
X551376Y393336D01*
X552826Y389835D01*
X552826Y386045D01*
X551376Y382544D01*
X548696Y379864D01*
X545195Y378414D01*
X541405Y378414D01*
G37*
%LPD*%
%LPC*%
G36*
X541405Y302214D02*
X541405Y302214D01*
X537904Y303664D01*
X535224Y306344D01*
X533774Y309845D01*
X533774Y313635D01*
X535224Y317136D01*
X537904Y319816D01*
X541405Y321266D01*
X545195Y321266D01*
X548696Y319816D01*
X551376Y317136D01*
X552826Y313635D01*
X552826Y309845D01*
X551376Y306344D01*
X548696Y303664D01*
X545195Y302214D01*
X541405Y302214D01*
G37*
%LPD*%
%LPC*%
G36*
X820805Y353014D02*
X820805Y353014D01*
X817304Y354464D01*
X814624Y357144D01*
X813174Y360645D01*
X813174Y364435D01*
X814624Y367936D01*
X817304Y370616D01*
X820805Y372066D01*
X824595Y372066D01*
X828096Y370616D01*
X830776Y367936D01*
X832226Y364435D01*
X832226Y360645D01*
X830776Y357144D01*
X828096Y354464D01*
X824595Y353014D01*
X820805Y353014D01*
G37*
%LPD*%
%LPC*%
G36*
X795405Y353014D02*
X795405Y353014D01*
X791904Y354464D01*
X789224Y357144D01*
X787774Y360645D01*
X787774Y364435D01*
X789224Y367936D01*
X791904Y370616D01*
X795405Y372066D01*
X799195Y372066D01*
X802696Y370616D01*
X805376Y367936D01*
X806826Y364435D01*
X806826Y360645D01*
X805376Y357144D01*
X802696Y354464D01*
X799195Y353014D01*
X795405Y353014D01*
G37*
%LPD*%
%LPC*%
G36*
X566805Y149814D02*
X566805Y149814D01*
X563304Y151264D01*
X560624Y153944D01*
X559174Y157445D01*
X559174Y161235D01*
X560624Y164736D01*
X563304Y167416D01*
X566805Y168866D01*
X570595Y168866D01*
X574096Y167416D01*
X576776Y164736D01*
X578226Y161235D01*
X578226Y157445D01*
X576776Y153944D01*
X574096Y151264D01*
X570595Y149814D01*
X566805Y149814D01*
G37*
%LPD*%
%LPC*%
G36*
X541405Y149814D02*
X541405Y149814D01*
X537904Y151264D01*
X535224Y153944D01*
X533774Y157445D01*
X533774Y161235D01*
X535224Y164736D01*
X537904Y167416D01*
X541405Y168866D01*
X545195Y168866D01*
X548696Y167416D01*
X551376Y164736D01*
X552826Y161235D01*
X552826Y157445D01*
X551376Y153944D01*
X548696Y151264D01*
X545195Y149814D01*
X541405Y149814D01*
G37*
%LPD*%
%LPC*%
G36*
X566805Y124414D02*
X566805Y124414D01*
X563304Y125864D01*
X560624Y128544D01*
X559174Y132045D01*
X559174Y135835D01*
X560624Y139336D01*
X563304Y142016D01*
X566805Y143466D01*
X570595Y143466D01*
X574096Y142016D01*
X576776Y139336D01*
X578226Y135835D01*
X578226Y132045D01*
X576776Y128544D01*
X574096Y125864D01*
X570595Y124414D01*
X566805Y124414D01*
G37*
%LPD*%
%LPC*%
G36*
X541405Y124414D02*
X541405Y124414D01*
X537904Y125864D01*
X535224Y128544D01*
X533774Y132045D01*
X533774Y135835D01*
X535224Y139336D01*
X537904Y142016D01*
X541405Y143466D01*
X545195Y143466D01*
X548696Y142016D01*
X551376Y139336D01*
X552826Y135835D01*
X552826Y132045D01*
X551376Y128544D01*
X548696Y125864D01*
X545195Y124414D01*
X541405Y124414D01*
G37*
%LPD*%
%LPC*%
G36*
X820805Y124414D02*
X820805Y124414D01*
X817304Y125864D01*
X814624Y128544D01*
X813174Y132045D01*
X813174Y135835D01*
X814624Y139336D01*
X817304Y142016D01*
X820805Y143466D01*
X824595Y143466D01*
X828096Y142016D01*
X830776Y139336D01*
X832226Y135835D01*
X832226Y132045D01*
X830776Y128544D01*
X828096Y125864D01*
X824595Y124414D01*
X820805Y124414D01*
G37*
%LPD*%
%LPC*%
G36*
X795405Y124414D02*
X795405Y124414D01*
X791904Y125864D01*
X789224Y128544D01*
X787774Y132045D01*
X787774Y135835D01*
X789224Y139336D01*
X791904Y142016D01*
X795405Y143466D01*
X799195Y143466D01*
X802696Y142016D01*
X805376Y139336D01*
X806826Y135835D01*
X806826Y132045D01*
X805376Y128544D01*
X802696Y125864D01*
X799195Y124414D01*
X795405Y124414D01*
G37*
%LPD*%
%LPC*%
G36*
X820805Y99014D02*
X820805Y99014D01*
X817304Y100464D01*
X814624Y103144D01*
X813174Y106645D01*
X813174Y110435D01*
X814624Y113936D01*
X817304Y116616D01*
X820805Y118066D01*
X824595Y118066D01*
X828096Y116616D01*
X830776Y113936D01*
X832226Y110435D01*
X832226Y106645D01*
X830776Y103144D01*
X828096Y100464D01*
X824595Y99014D01*
X820805Y99014D01*
G37*
%LPD*%
%LPC*%
G36*
X795405Y99014D02*
X795405Y99014D01*
X791904Y100464D01*
X789224Y103144D01*
X787774Y106645D01*
X787774Y110435D01*
X789224Y113936D01*
X791904Y116616D01*
X795405Y118066D01*
X799195Y118066D01*
X802696Y116616D01*
X805376Y113936D01*
X806826Y110435D01*
X806826Y106645D01*
X805376Y103144D01*
X802696Y100464D01*
X799195Y99014D01*
X795405Y99014D01*
G37*
%LPD*%
%LPC*%
G36*
X566805Y99014D02*
X566805Y99014D01*
X563304Y100464D01*
X560624Y103144D01*
X559174Y106645D01*
X559174Y110435D01*
X560624Y113936D01*
X563304Y116616D01*
X566805Y118066D01*
X570595Y118066D01*
X574096Y116616D01*
X576776Y113936D01*
X578226Y110435D01*
X578226Y106645D01*
X576776Y103144D01*
X574096Y100464D01*
X570595Y99014D01*
X566805Y99014D01*
G37*
%LPD*%
%LPC*%
G36*
X541405Y99014D02*
X541405Y99014D01*
X537904Y100464D01*
X535224Y103144D01*
X533774Y106645D01*
X533774Y110435D01*
X535224Y113936D01*
X537904Y116616D01*
X541405Y118066D01*
X545195Y118066D01*
X548696Y116616D01*
X551376Y113936D01*
X552826Y110435D01*
X552826Y106645D01*
X551376Y103144D01*
X548696Y100464D01*
X545195Y99014D01*
X541405Y99014D01*
G37*
%LPD*%
%LPC*%
G36*
X820805Y73614D02*
X820805Y73614D01*
X817304Y75064D01*
X814624Y77744D01*
X813174Y81245D01*
X813174Y85035D01*
X814624Y88536D01*
X817304Y91216D01*
X820805Y92666D01*
X824595Y92666D01*
X828096Y91216D01*
X830776Y88536D01*
X832226Y85035D01*
X832226Y81245D01*
X830776Y77744D01*
X828096Y75064D01*
X824595Y73614D01*
X820805Y73614D01*
G37*
%LPD*%
%LPC*%
G36*
X795405Y73614D02*
X795405Y73614D01*
X791904Y75064D01*
X789224Y77744D01*
X787774Y81245D01*
X787774Y85035D01*
X789224Y88536D01*
X791904Y91216D01*
X795405Y92666D01*
X799195Y92666D01*
X802696Y91216D01*
X805376Y88536D01*
X806826Y85035D01*
X806826Y81245D01*
X805376Y77744D01*
X802696Y75064D01*
X799195Y73614D01*
X795405Y73614D01*
G37*
%LPD*%
%LPC*%
G36*
X566805Y73614D02*
X566805Y73614D01*
X563304Y75064D01*
X560624Y77744D01*
X559174Y81245D01*
X559174Y85035D01*
X560624Y88536D01*
X563304Y91216D01*
X566805Y92666D01*
X570595Y92666D01*
X574096Y91216D01*
X576776Y88536D01*
X578226Y85035D01*
X578226Y81245D01*
X576776Y77744D01*
X574096Y75064D01*
X570595Y73614D01*
X566805Y73614D01*
G37*
%LPD*%
%LPC*%
G36*
X541405Y73614D02*
X541405Y73614D01*
X537904Y75064D01*
X535224Y77744D01*
X533774Y81245D01*
X533774Y85035D01*
X535224Y88536D01*
X537904Y91216D01*
X541405Y92666D01*
X545195Y92666D01*
X548696Y91216D01*
X551376Y88536D01*
X552826Y85035D01*
X552826Y81245D01*
X551376Y77744D01*
X548696Y75064D01*
X545195Y73614D01*
X541405Y73614D01*
G37*
%LPD*%
%LPC*%
G36*
X1266924Y194919D02*
X1266924Y194919D01*
X1263586Y196302D01*
X1261032Y198856D01*
X1259649Y202194D01*
X1259649Y205806D01*
X1261032Y209144D01*
X1263586Y211698D01*
X1266924Y213081D01*
X1270536Y213081D01*
X1273874Y211698D01*
X1276428Y209144D01*
X1277811Y205806D01*
X1277811Y202194D01*
X1276428Y198856D01*
X1273874Y196302D01*
X1270536Y194919D01*
X1266924Y194919D01*
G37*
%LPD*%
%LPC*%
G36*
X1141924Y194919D02*
X1141924Y194919D01*
X1138586Y196302D01*
X1136032Y198856D01*
X1134649Y202194D01*
X1134649Y205806D01*
X1136032Y209144D01*
X1138586Y211698D01*
X1141924Y213081D01*
X1145536Y213081D01*
X1148874Y211698D01*
X1151428Y209144D01*
X1152811Y205806D01*
X1152811Y202194D01*
X1151428Y198856D01*
X1148874Y196302D01*
X1145536Y194919D01*
X1141924Y194919D01*
G37*
%LPD*%
%LPC*%
G36*
X1576074Y555269D02*
X1576074Y555269D01*
X1572736Y556652D01*
X1570182Y559206D01*
X1568799Y562544D01*
X1568799Y566156D01*
X1570182Y569494D01*
X1572736Y572048D01*
X1576074Y573431D01*
X1579686Y573431D01*
X1583024Y572048D01*
X1585578Y569494D01*
X1586961Y566156D01*
X1586961Y562544D01*
X1585578Y559206D01*
X1583024Y556652D01*
X1579686Y555269D01*
X1576074Y555269D01*
G37*
%LPD*%
%LPC*%
G36*
X1451074Y555269D02*
X1451074Y555269D01*
X1447736Y556652D01*
X1445182Y559206D01*
X1443799Y562544D01*
X1443799Y566156D01*
X1445182Y569494D01*
X1447736Y572048D01*
X1451074Y573431D01*
X1454686Y573431D01*
X1458024Y572048D01*
X1460578Y569494D01*
X1461961Y566156D01*
X1461961Y562544D01*
X1460578Y559206D01*
X1458024Y556652D01*
X1454686Y555269D01*
X1451074Y555269D01*
G37*
%LPD*%
%LPC*%
G36*
X1576074Y505269D02*
X1576074Y505269D01*
X1572736Y506652D01*
X1570182Y509206D01*
X1568799Y512544D01*
X1568799Y516156D01*
X1570182Y519494D01*
X1572736Y522048D01*
X1576074Y523431D01*
X1579686Y523431D01*
X1583024Y522048D01*
X1585578Y519494D01*
X1586961Y516156D01*
X1586961Y512544D01*
X1585578Y509206D01*
X1583024Y506652D01*
X1579686Y505269D01*
X1576074Y505269D01*
G37*
%LPD*%
%LPC*%
G36*
X1087854Y393509D02*
X1087854Y393509D01*
X1084516Y394892D01*
X1081962Y397446D01*
X1080579Y400784D01*
X1080579Y404396D01*
X1081962Y407734D01*
X1084516Y410288D01*
X1087854Y411671D01*
X1091466Y411671D01*
X1094804Y410288D01*
X1097358Y407734D01*
X1098741Y404396D01*
X1098741Y400784D01*
X1097358Y397446D01*
X1094804Y394892D01*
X1091466Y393509D01*
X1087854Y393509D01*
G37*
%LPD*%
%LPC*%
G36*
X962854Y393509D02*
X962854Y393509D01*
X959516Y394892D01*
X956962Y397446D01*
X955579Y400784D01*
X955579Y404396D01*
X956962Y407734D01*
X959516Y410288D01*
X962854Y411671D01*
X966466Y411671D01*
X969804Y410288D01*
X972358Y407734D01*
X973741Y404396D01*
X973741Y400784D01*
X972358Y397446D01*
X969804Y394892D01*
X966466Y393509D01*
X962854Y393509D01*
G37*
%LPD*%
%LPC*%
G36*
X1423134Y393509D02*
X1423134Y393509D01*
X1419796Y394892D01*
X1417242Y397446D01*
X1415859Y400784D01*
X1415859Y404396D01*
X1417242Y407734D01*
X1419796Y410288D01*
X1423134Y411671D01*
X1426746Y411671D01*
X1430084Y410288D01*
X1432638Y407734D01*
X1434021Y404396D01*
X1434021Y400784D01*
X1432638Y397446D01*
X1430084Y394892D01*
X1426746Y393509D01*
X1423134Y393509D01*
G37*
%LPD*%
%LPC*%
G36*
X1087854Y121729D02*
X1087854Y121729D01*
X1084516Y123112D01*
X1081962Y125666D01*
X1080579Y129004D01*
X1080579Y132616D01*
X1081962Y135954D01*
X1084516Y138508D01*
X1087854Y139891D01*
X1091466Y139891D01*
X1094804Y138508D01*
X1097358Y135954D01*
X1098741Y132616D01*
X1098741Y129004D01*
X1097358Y125666D01*
X1094804Y123112D01*
X1091466Y121729D01*
X1087854Y121729D01*
G37*
%LPD*%
%LPC*%
G36*
X962854Y121729D02*
X962854Y121729D01*
X959516Y123112D01*
X956962Y125666D01*
X955579Y129004D01*
X955579Y132616D01*
X956962Y135954D01*
X959516Y138508D01*
X962854Y139891D01*
X966466Y139891D01*
X969804Y138508D01*
X972358Y135954D01*
X973741Y132616D01*
X973741Y129004D01*
X972358Y125666D01*
X969804Y123112D01*
X966466Y121729D01*
X962854Y121729D01*
G37*
%LPD*%
%LPC*%
G36*
X1423134Y121729D02*
X1423134Y121729D01*
X1419796Y123112D01*
X1417242Y125666D01*
X1415859Y129004D01*
X1415859Y132616D01*
X1417242Y135954D01*
X1419796Y138508D01*
X1423134Y139891D01*
X1426746Y139891D01*
X1430084Y138508D01*
X1432638Y135954D01*
X1434021Y132616D01*
X1434021Y129004D01*
X1432638Y125666D01*
X1430084Y123112D01*
X1426746Y121729D01*
X1423134Y121729D01*
G37*
%LPD*%
%LPC*%
G36*
X1298134Y393509D02*
X1298134Y393509D01*
X1294796Y394892D01*
X1292242Y397446D01*
X1290859Y400784D01*
X1290859Y404396D01*
X1292242Y407734D01*
X1294796Y410288D01*
X1298134Y411671D01*
X1301746Y411671D01*
X1305084Y410288D01*
X1307638Y407734D01*
X1309021Y404396D01*
X1309021Y400784D01*
X1307638Y397446D01*
X1305084Y394892D01*
X1301746Y393509D01*
X1298134Y393509D01*
G37*
%LPD*%
%LPC*%
G36*
X1423134Y343509D02*
X1423134Y343509D01*
X1419796Y344892D01*
X1417242Y347446D01*
X1415859Y350784D01*
X1415859Y354396D01*
X1417242Y357734D01*
X1419796Y360288D01*
X1423134Y361671D01*
X1426746Y361671D01*
X1430084Y360288D01*
X1432638Y357734D01*
X1434021Y354396D01*
X1434021Y350784D01*
X1432638Y347446D01*
X1430084Y344892D01*
X1426746Y343509D01*
X1423134Y343509D01*
G37*
%LPD*%
%LPC*%
G36*
X1298134Y343509D02*
X1298134Y343509D01*
X1294796Y344892D01*
X1292242Y347446D01*
X1290859Y350784D01*
X1290859Y354396D01*
X1292242Y357734D01*
X1294796Y360288D01*
X1298134Y361671D01*
X1301746Y361671D01*
X1305084Y360288D01*
X1307638Y357734D01*
X1309021Y354396D01*
X1309021Y350784D01*
X1307638Y347446D01*
X1305084Y344892D01*
X1301746Y343509D01*
X1298134Y343509D01*
G37*
%LPD*%
%LPC*%
G36*
X1087854Y343509D02*
X1087854Y343509D01*
X1084516Y344892D01*
X1081962Y347446D01*
X1080579Y350784D01*
X1080579Y354396D01*
X1081962Y357734D01*
X1084516Y360288D01*
X1087854Y361671D01*
X1091466Y361671D01*
X1094804Y360288D01*
X1097358Y357734D01*
X1098741Y354396D01*
X1098741Y350784D01*
X1097358Y347446D01*
X1094804Y344892D01*
X1091466Y343509D01*
X1087854Y343509D01*
G37*
%LPD*%
%LPC*%
G36*
X962854Y343509D02*
X962854Y343509D01*
X959516Y344892D01*
X956962Y347446D01*
X955579Y350784D01*
X955579Y354396D01*
X956962Y357734D01*
X959516Y360288D01*
X962854Y361671D01*
X966466Y361671D01*
X969804Y360288D01*
X972358Y357734D01*
X973741Y354396D01*
X973741Y350784D01*
X972358Y347446D01*
X969804Y344892D01*
X966466Y343509D01*
X962854Y343509D01*
G37*
%LPD*%
%LPC*%
G36*
X1298134Y121729D02*
X1298134Y121729D01*
X1294796Y123112D01*
X1292242Y125666D01*
X1290859Y129004D01*
X1290859Y132616D01*
X1292242Y135954D01*
X1294796Y138508D01*
X1298134Y139891D01*
X1301746Y139891D01*
X1305084Y138508D01*
X1307638Y135954D01*
X1309021Y132616D01*
X1309021Y129004D01*
X1307638Y125666D01*
X1305084Y123112D01*
X1301746Y121729D01*
X1298134Y121729D01*
G37*
%LPD*%
%LPC*%
G36*
X1266924Y244919D02*
X1266924Y244919D01*
X1263586Y246302D01*
X1261032Y248856D01*
X1259649Y252194D01*
X1259649Y255806D01*
X1261032Y259144D01*
X1263586Y261698D01*
X1266924Y263081D01*
X1270536Y263081D01*
X1273874Y261698D01*
X1276428Y259144D01*
X1277811Y255806D01*
X1277811Y252194D01*
X1276428Y248856D01*
X1273874Y246302D01*
X1270536Y244919D01*
X1266924Y244919D01*
G37*
%LPD*%
%LPC*%
G36*
X1141924Y244919D02*
X1141924Y244919D01*
X1138586Y246302D01*
X1136032Y248856D01*
X1134649Y252194D01*
X1134649Y255806D01*
X1136032Y259144D01*
X1138586Y261698D01*
X1141924Y263081D01*
X1145536Y263081D01*
X1148874Y261698D01*
X1151428Y259144D01*
X1152811Y255806D01*
X1152811Y252194D01*
X1151428Y248856D01*
X1148874Y246302D01*
X1145536Y244919D01*
X1141924Y244919D01*
G37*
%LPD*%
%LPC*%
G36*
X1423134Y71729D02*
X1423134Y71729D01*
X1419796Y73112D01*
X1417242Y75666D01*
X1415859Y79004D01*
X1415859Y82616D01*
X1417242Y85954D01*
X1419796Y88508D01*
X1423134Y89891D01*
X1426746Y89891D01*
X1430084Y88508D01*
X1432638Y85954D01*
X1434021Y82616D01*
X1434021Y79004D01*
X1432638Y75666D01*
X1430084Y73112D01*
X1426746Y71729D01*
X1423134Y71729D01*
G37*
%LPD*%
%LPC*%
G36*
X1298134Y71729D02*
X1298134Y71729D01*
X1294796Y73112D01*
X1292242Y75666D01*
X1290859Y79004D01*
X1290859Y82616D01*
X1292242Y85954D01*
X1294796Y88508D01*
X1298134Y89891D01*
X1301746Y89891D01*
X1305084Y88508D01*
X1307638Y85954D01*
X1309021Y82616D01*
X1309021Y79004D01*
X1307638Y75666D01*
X1305084Y73112D01*
X1301746Y71729D01*
X1298134Y71729D01*
G37*
%LPD*%
%LPC*%
G36*
X1087854Y71729D02*
X1087854Y71729D01*
X1084516Y73112D01*
X1081962Y75666D01*
X1080579Y79004D01*
X1080579Y82616D01*
X1081962Y85954D01*
X1084516Y88508D01*
X1087854Y89891D01*
X1091466Y89891D01*
X1094804Y88508D01*
X1097358Y85954D01*
X1098741Y82616D01*
X1098741Y79004D01*
X1097358Y75666D01*
X1094804Y73112D01*
X1091466Y71729D01*
X1087854Y71729D01*
G37*
%LPD*%
%LPC*%
G36*
X962854Y71729D02*
X962854Y71729D01*
X959516Y73112D01*
X956962Y75666D01*
X955579Y79004D01*
X955579Y82616D01*
X956962Y85954D01*
X959516Y88508D01*
X962854Y89891D01*
X966466Y89891D01*
X969804Y88508D01*
X972358Y85954D01*
X973741Y82616D01*
X973741Y79004D01*
X972358Y75666D01*
X969804Y73112D01*
X966466Y71729D01*
X962854Y71729D01*
G37*
%LPD*%
%LPC*%
G36*
X338353Y135769D02*
X338353Y135769D01*
X335383Y137000D01*
X333110Y139273D01*
X331879Y142243D01*
X331879Y145457D01*
X333110Y148427D01*
X335383Y150700D01*
X338353Y151931D01*
X341567Y151931D01*
X344537Y150700D01*
X346810Y148427D01*
X348041Y145457D01*
X348041Y142243D01*
X346810Y139273D01*
X344537Y137000D01*
X341567Y135769D01*
X338353Y135769D01*
G37*
%LPD*%
%LPC*%
G36*
X295866Y229615D02*
X295866Y229615D01*
X293439Y230621D01*
X291581Y232479D01*
X290575Y234906D01*
X290575Y237534D01*
X291581Y239961D01*
X293439Y241819D01*
X295866Y242825D01*
X298494Y242825D01*
X300921Y241819D01*
X302779Y239961D01*
X303785Y237534D01*
X303785Y234906D01*
X302779Y232479D01*
X300921Y230621D01*
X298494Y229615D01*
X295866Y229615D01*
G37*
%LPD*%
%LPC*%
G36*
X389846Y303275D02*
X389846Y303275D01*
X387419Y304281D01*
X385561Y306139D01*
X384555Y308566D01*
X384555Y311194D01*
X385561Y313621D01*
X387419Y315479D01*
X389846Y316485D01*
X392474Y316485D01*
X394901Y315479D01*
X396759Y313621D01*
X397765Y311194D01*
X397765Y308566D01*
X396759Y306139D01*
X394901Y304281D01*
X392474Y303275D01*
X389846Y303275D01*
G37*
%LPD*%
%LPC*%
G36*
X1319486Y197865D02*
X1319486Y197865D01*
X1317059Y198871D01*
X1315201Y200729D01*
X1314195Y203156D01*
X1314195Y205784D01*
X1315201Y208211D01*
X1317059Y210069D01*
X1319486Y211075D01*
X1322114Y211075D01*
X1324541Y210069D01*
X1326399Y208211D01*
X1327405Y205784D01*
X1327405Y203156D01*
X1326399Y200729D01*
X1324541Y198871D01*
X1322114Y197865D01*
X1319486Y197865D01*
G37*
%LPD*%
%LPC*%
G36*
X1473156Y74675D02*
X1473156Y74675D01*
X1470729Y75681D01*
X1468871Y77539D01*
X1467865Y79966D01*
X1467865Y82594D01*
X1468871Y85021D01*
X1470729Y86879D01*
X1473156Y87885D01*
X1475784Y87885D01*
X1478211Y86879D01*
X1480069Y85021D01*
X1481075Y82594D01*
X1481075Y79966D01*
X1480069Y77539D01*
X1478211Y75681D01*
X1475784Y74675D01*
X1473156Y74675D01*
G37*
%LPD*%
%LPC*%
G36*
X1130256Y73405D02*
X1130256Y73405D01*
X1127829Y74411D01*
X1125971Y76269D01*
X1124965Y78696D01*
X1124965Y81324D01*
X1125971Y83751D01*
X1127829Y85609D01*
X1130256Y86615D01*
X1132884Y86615D01*
X1135311Y85609D01*
X1137169Y83751D01*
X1138175Y81324D01*
X1138175Y78696D01*
X1137169Y76269D01*
X1135311Y74411D01*
X1132884Y73405D01*
X1130256Y73405D01*
G37*
%LPD*%
%LPC*%
G36*
X327616Y257555D02*
X327616Y257555D01*
X325189Y258561D01*
X323331Y260419D01*
X322325Y262846D01*
X322325Y265474D01*
X323331Y267901D01*
X325189Y269759D01*
X327616Y270765D01*
X330244Y270765D01*
X332671Y269759D01*
X334529Y267901D01*
X335535Y265474D01*
X335535Y262846D01*
X334529Y260419D01*
X332671Y258561D01*
X330244Y257555D01*
X327616Y257555D01*
G37*
%LPD*%
%LPC*%
G36*
X295866Y309625D02*
X295866Y309625D01*
X293439Y310631D01*
X291581Y312489D01*
X290575Y314916D01*
X290575Y317544D01*
X291581Y319971D01*
X293439Y321829D01*
X295866Y322835D01*
X298494Y322835D01*
X300921Y321829D01*
X302779Y319971D01*
X303785Y317544D01*
X303785Y314916D01*
X302779Y312489D01*
X300921Y310631D01*
X298494Y309625D01*
X295866Y309625D01*
G37*
%LPD*%
%LPC*%
G36*
X266656Y229615D02*
X266656Y229615D01*
X264229Y230621D01*
X262371Y232479D01*
X261365Y234906D01*
X261365Y237534D01*
X262371Y239961D01*
X264229Y241819D01*
X266656Y242825D01*
X269284Y242825D01*
X271711Y241819D01*
X273569Y239961D01*
X274575Y237534D01*
X274575Y234906D01*
X273569Y232479D01*
X271711Y230621D01*
X269284Y229615D01*
X266656Y229615D01*
G37*
%LPD*%
%LPC*%
G36*
X1142956Y346455D02*
X1142956Y346455D01*
X1140529Y347461D01*
X1138671Y349319D01*
X1137665Y351746D01*
X1137665Y354374D01*
X1138671Y356801D01*
X1140529Y358659D01*
X1142956Y359665D01*
X1145584Y359665D01*
X1148011Y358659D01*
X1149869Y356801D01*
X1150875Y354374D01*
X1150875Y351746D01*
X1149869Y349319D01*
X1148011Y347461D01*
X1145584Y346455D01*
X1142956Y346455D01*
G37*
%LPD*%
%LPC*%
G36*
X363176Y289305D02*
X363176Y289305D01*
X360749Y290311D01*
X358891Y292169D01*
X357885Y294596D01*
X357885Y297224D01*
X358891Y299651D01*
X360749Y301509D01*
X363176Y302515D01*
X365804Y302515D01*
X368231Y301509D01*
X370089Y299651D01*
X371095Y297224D01*
X371095Y294596D01*
X370089Y292169D01*
X368231Y290311D01*
X365804Y289305D01*
X363176Y289305D01*
G37*
%LPD*%
%LPC*%
G36*
X275546Y468375D02*
X275546Y468375D01*
X273119Y469381D01*
X271261Y471239D01*
X270255Y473666D01*
X270255Y476294D01*
X271261Y478721D01*
X273119Y480579D01*
X275546Y481585D01*
X278174Y481585D01*
X280601Y480579D01*
X282459Y478721D01*
X283465Y476294D01*
X283465Y473666D01*
X282459Y471239D01*
X280601Y469381D01*
X278174Y468375D01*
X275546Y468375D01*
G37*
%LPD*%
%LPC*%
G36*
X332696Y329945D02*
X332696Y329945D01*
X330269Y330951D01*
X328411Y332809D01*
X327405Y335236D01*
X327405Y337864D01*
X328411Y340291D01*
X330269Y342149D01*
X332696Y343155D01*
X335324Y343155D01*
X337751Y342149D01*
X339609Y340291D01*
X340615Y337864D01*
X340615Y335236D01*
X339609Y332809D01*
X337751Y330951D01*
X335324Y329945D01*
X332696Y329945D01*
G37*
%LPD*%
%LPC*%
G36*
X266656Y382015D02*
X266656Y382015D01*
X264229Y383021D01*
X262371Y384879D01*
X261365Y387306D01*
X261365Y389934D01*
X262371Y392361D01*
X264229Y394219D01*
X266656Y395225D01*
X269284Y395225D01*
X271711Y394219D01*
X273569Y392361D01*
X274575Y389934D01*
X274575Y387306D01*
X273569Y384879D01*
X271711Y383021D01*
X269284Y382015D01*
X266656Y382015D01*
G37*
%LPD*%
%LPC*%
G36*
X1168399Y621029D02*
X1168399Y621029D01*
X1168399Y628349D01*
X1169760Y627906D01*
X1171185Y627180D01*
X1172479Y626240D01*
X1173610Y625109D01*
X1174550Y623815D01*
X1175276Y622390D01*
X1175719Y621029D01*
X1168399Y621029D01*
G37*
%LPD*%
%LPC*%
G36*
X1142999Y621029D02*
X1142999Y621029D01*
X1142999Y628349D01*
X1144360Y627906D01*
X1145785Y627180D01*
X1147079Y626240D01*
X1148210Y625109D01*
X1149150Y623815D01*
X1149876Y622390D01*
X1150319Y621029D01*
X1142999Y621029D01*
G37*
%LPD*%
%LPC*%
G36*
X443229Y621029D02*
X443229Y621029D01*
X443229Y628349D01*
X444590Y627906D01*
X446015Y627180D01*
X447309Y626240D01*
X448440Y625109D01*
X449380Y623815D01*
X450106Y622390D01*
X450549Y621029D01*
X443229Y621029D01*
G37*
%LPD*%
%LPC*%
G36*
X417829Y621029D02*
X417829Y621029D01*
X417829Y628349D01*
X419190Y627906D01*
X420615Y627180D01*
X421909Y626240D01*
X423040Y625109D01*
X423980Y623815D01*
X424706Y622390D01*
X425149Y621029D01*
X417829Y621029D01*
G37*
%LPD*%
%LPC*%
G36*
X417829Y615951D02*
X417829Y615951D01*
X425149Y615951D01*
X424706Y614590D01*
X423980Y613165D01*
X423040Y611871D01*
X421909Y610740D01*
X420615Y609800D01*
X419190Y609074D01*
X417829Y608631D01*
X417829Y615951D01*
G37*
%LPD*%
%LPC*%
G36*
X443229Y615951D02*
X443229Y615951D01*
X450549Y615951D01*
X450106Y614590D01*
X449380Y613165D01*
X448440Y611871D01*
X447309Y610740D01*
X446015Y609800D01*
X444590Y609074D01*
X443229Y608631D01*
X443229Y615951D01*
G37*
%LPD*%
%LPC*%
G36*
X1142999Y615951D02*
X1142999Y615951D01*
X1150319Y615951D01*
X1149876Y614590D01*
X1149150Y613165D01*
X1148210Y611871D01*
X1147079Y610740D01*
X1145785Y609800D01*
X1144360Y609074D01*
X1142999Y608631D01*
X1142999Y615951D01*
G37*
%LPD*%
%LPC*%
G36*
X1168399Y615951D02*
X1168399Y615951D01*
X1175719Y615951D01*
X1175276Y614590D01*
X1174550Y613165D01*
X1173610Y611871D01*
X1172479Y610740D01*
X1171185Y609800D01*
X1169760Y609074D01*
X1168399Y608631D01*
X1168399Y615951D01*
G37*
%LPD*%
%LPC*%
G36*
X1130601Y621029D02*
X1130601Y621029D01*
X1131044Y622390D01*
X1131770Y623815D01*
X1132710Y625109D01*
X1133841Y626240D01*
X1135135Y627180D01*
X1136560Y627906D01*
X1137921Y628349D01*
X1137921Y621029D01*
X1130601Y621029D01*
G37*
%LPD*%
%LPC*%
G36*
X405431Y621029D02*
X405431Y621029D01*
X405874Y622390D01*
X406600Y623815D01*
X407540Y625109D01*
X408671Y626240D01*
X409965Y627180D01*
X411390Y627906D01*
X412751Y628349D01*
X412751Y621029D01*
X405431Y621029D01*
G37*
%LPD*%
%LPC*%
G36*
X1156001Y621029D02*
X1156001Y621029D01*
X1156444Y622390D01*
X1157170Y623815D01*
X1158110Y625109D01*
X1159241Y626240D01*
X1160535Y627180D01*
X1161960Y627906D01*
X1163321Y628349D01*
X1163321Y621029D01*
X1156001Y621029D01*
G37*
%LPD*%
%LPC*%
G36*
X430831Y621029D02*
X430831Y621029D01*
X431274Y622390D01*
X432000Y623815D01*
X432940Y625109D01*
X434071Y626240D01*
X435365Y627180D01*
X436790Y627906D01*
X438151Y628349D01*
X438151Y621029D01*
X430831Y621029D01*
G37*
%LPD*%
%LPC*%
G36*
X436790Y609074D02*
X436790Y609074D01*
X435365Y609800D01*
X434071Y610740D01*
X432940Y611871D01*
X432000Y613165D01*
X431274Y614590D01*
X430831Y615951D01*
X438151Y615951D01*
X438151Y608631D01*
X436790Y609074D01*
G37*
%LPD*%
%LPC*%
G36*
X1136560Y609074D02*
X1136560Y609074D01*
X1135135Y609800D01*
X1133841Y610740D01*
X1132710Y611871D01*
X1131770Y613165D01*
X1131044Y614590D01*
X1130601Y615951D01*
X1137921Y615951D01*
X1137921Y608631D01*
X1136560Y609074D01*
G37*
%LPD*%
%LPC*%
G36*
X1161960Y609074D02*
X1161960Y609074D01*
X1160535Y609800D01*
X1159241Y610740D01*
X1158110Y611871D01*
X1157170Y613165D01*
X1156444Y614590D01*
X1156001Y615951D01*
X1163321Y615951D01*
X1163321Y608631D01*
X1161960Y609074D01*
G37*
%LPD*%
%LPC*%
G36*
X411390Y609074D02*
X411390Y609074D01*
X409965Y609800D01*
X408671Y610740D01*
X407540Y611871D01*
X406600Y613165D01*
X405874Y614590D01*
X405431Y615951D01*
X412751Y615951D01*
X412751Y608631D01*
X411390Y609074D01*
G37*
%LPD*%
%LPC*%
G36*
X799522Y339362D02*
X799522Y339362D01*
X799522Y346433D01*
X799531Y346431D01*
X800957Y345968D01*
X802293Y345287D01*
X803506Y344406D01*
X804566Y343346D01*
X805447Y342133D01*
X806128Y340797D01*
X806591Y339371D01*
X806593Y339362D01*
X799522Y339362D01*
G37*
%LPD*%
%LPC*%
G36*
X570922Y263162D02*
X570922Y263162D01*
X570922Y270233D01*
X570931Y270231D01*
X572357Y269768D01*
X573693Y269087D01*
X574906Y268206D01*
X575966Y267146D01*
X576847Y265933D01*
X577528Y264597D01*
X577991Y263171D01*
X577993Y263162D01*
X570922Y263162D01*
G37*
%LPD*%
%LPC*%
G36*
X570922Y339362D02*
X570922Y339362D01*
X570922Y346433D01*
X570931Y346431D01*
X572357Y345968D01*
X573693Y345287D01*
X574906Y344406D01*
X575966Y343346D01*
X576847Y342133D01*
X577528Y340797D01*
X577991Y339371D01*
X577993Y339362D01*
X570922Y339362D01*
G37*
%LPD*%
%LPC*%
G36*
X570922Y334918D02*
X570922Y334918D01*
X577993Y334918D01*
X577991Y334909D01*
X577528Y333483D01*
X576847Y332147D01*
X575966Y330934D01*
X574906Y329874D01*
X573693Y328993D01*
X572357Y328312D01*
X570931Y327849D01*
X570922Y327847D01*
X570922Y334918D01*
G37*
%LPD*%
%LPC*%
G36*
X559407Y263162D02*
X559407Y263162D01*
X559409Y263171D01*
X559872Y264597D01*
X560553Y265933D01*
X561434Y267146D01*
X562494Y268206D01*
X563707Y269087D01*
X565043Y269768D01*
X566469Y270231D01*
X566478Y270233D01*
X566478Y263162D01*
X559407Y263162D01*
G37*
%LPD*%
%LPC*%
G36*
X570922Y258718D02*
X570922Y258718D01*
X577993Y258718D01*
X577991Y258709D01*
X577528Y257283D01*
X576847Y255947D01*
X575966Y254734D01*
X574906Y253674D01*
X573693Y252793D01*
X572357Y252112D01*
X570931Y251649D01*
X570922Y251647D01*
X570922Y258718D01*
G37*
%LPD*%
%LPC*%
G36*
X788007Y339362D02*
X788007Y339362D01*
X788009Y339371D01*
X788472Y340797D01*
X789153Y342133D01*
X790034Y343346D01*
X791094Y344406D01*
X792307Y345287D01*
X793643Y345968D01*
X795069Y346431D01*
X795078Y346433D01*
X795078Y339362D01*
X788007Y339362D01*
G37*
%LPD*%
%LPC*%
G36*
X559407Y339362D02*
X559407Y339362D01*
X559409Y339371D01*
X559872Y340797D01*
X560553Y342133D01*
X561434Y343346D01*
X562494Y344406D01*
X563707Y345287D01*
X565043Y345968D01*
X566469Y346431D01*
X566478Y346433D01*
X566478Y339362D01*
X559407Y339362D01*
G37*
%LPD*%
%LPC*%
G36*
X799522Y334918D02*
X799522Y334918D01*
X806593Y334918D01*
X806591Y334909D01*
X806128Y333483D01*
X805447Y332147D01*
X804566Y330934D01*
X803506Y329874D01*
X802293Y328993D01*
X800957Y328312D01*
X799531Y327849D01*
X799522Y327847D01*
X799522Y334918D01*
G37*
%LPD*%
%LPC*%
G36*
X566469Y327849D02*
X566469Y327849D01*
X565043Y328312D01*
X563707Y328993D01*
X562494Y329874D01*
X561434Y330934D01*
X560553Y332147D01*
X559872Y333483D01*
X559409Y334909D01*
X559407Y334918D01*
X566478Y334918D01*
X566478Y327847D01*
X566469Y327849D01*
G37*
%LPD*%
%LPC*%
G36*
X795069Y327849D02*
X795069Y327849D01*
X793643Y328312D01*
X792307Y328993D01*
X791094Y329874D01*
X790034Y330934D01*
X789153Y332147D01*
X788472Y333483D01*
X788009Y334909D01*
X788007Y334918D01*
X795078Y334918D01*
X795078Y327847D01*
X795069Y327849D01*
G37*
%LPD*%
%LPC*%
G36*
X566469Y251649D02*
X566469Y251649D01*
X565043Y252112D01*
X563707Y252793D01*
X562494Y253674D01*
X561434Y254734D01*
X560553Y255947D01*
X559872Y257283D01*
X559409Y258709D01*
X559407Y258718D01*
X566478Y258718D01*
X566478Y251647D01*
X566469Y251649D01*
G37*
%LPD*%
%LPC*%
G36*
X1454879Y516349D02*
X1454879Y516349D01*
X1454879Y523227D01*
X1455006Y523207D01*
X1456366Y522765D01*
X1457639Y522116D01*
X1458796Y521276D01*
X1459806Y520266D01*
X1460646Y519109D01*
X1461295Y517836D01*
X1461737Y516476D01*
X1461757Y516349D01*
X1454879Y516349D01*
G37*
%LPD*%
%LPC*%
G36*
X1454879Y512351D02*
X1454879Y512351D01*
X1461757Y512351D01*
X1461737Y512224D01*
X1461295Y510864D01*
X1460646Y509591D01*
X1459806Y508434D01*
X1458796Y507424D01*
X1457639Y506584D01*
X1456366Y505935D01*
X1455006Y505493D01*
X1454879Y505473D01*
X1454879Y512351D01*
G37*
%LPD*%
%LPC*%
G36*
X1444003Y516349D02*
X1444003Y516349D01*
X1444023Y516476D01*
X1444465Y517836D01*
X1445114Y519109D01*
X1445954Y520266D01*
X1446964Y521276D01*
X1448121Y522116D01*
X1449394Y522765D01*
X1450754Y523207D01*
X1450881Y523227D01*
X1450881Y516349D01*
X1444003Y516349D01*
G37*
%LPD*%
%LPC*%
G36*
X1450754Y505493D02*
X1450754Y505493D01*
X1449394Y505935D01*
X1448121Y506584D01*
X1446964Y507424D01*
X1445954Y508434D01*
X1445114Y509591D01*
X1444465Y510864D01*
X1444023Y512224D01*
X1444003Y512351D01*
X1450881Y512351D01*
X1450881Y505473D01*
X1450754Y505493D01*
G37*
%LPD*%
%LPC*%
G36*
X341864Y80754D02*
X341864Y80754D01*
X341864Y86710D01*
X342317Y86620D01*
X343788Y86011D01*
X345111Y85127D01*
X346237Y84001D01*
X347121Y82678D01*
X347730Y81207D01*
X347820Y80754D01*
X341864Y80754D01*
G37*
%LPD*%
%LPC*%
G36*
X332100Y80754D02*
X332100Y80754D01*
X332190Y81207D01*
X332799Y82678D01*
X333683Y84001D01*
X334809Y85127D01*
X336132Y86011D01*
X337603Y86620D01*
X338056Y86710D01*
X338056Y80754D01*
X332100Y80754D01*
G37*
%LPD*%
%LPC*%
G36*
X341864Y76946D02*
X341864Y76946D01*
X347820Y76946D01*
X347730Y76493D01*
X347121Y75022D01*
X346237Y73699D01*
X345111Y72573D01*
X343788Y71689D01*
X342317Y71080D01*
X341864Y70990D01*
X341864Y76946D01*
G37*
%LPD*%
%LPC*%
G36*
X337603Y71080D02*
X337603Y71080D01*
X336132Y71689D01*
X334809Y72573D01*
X333683Y73699D01*
X332799Y75022D01*
X332190Y76493D01*
X332100Y76946D01*
X338056Y76946D01*
X338056Y70990D01*
X337603Y71080D01*
G37*
%LPD*%
D10*
X1424940Y80810D03*
X1299940Y80810D03*
X1424940Y130810D03*
X1299940Y130810D03*
X1268730Y204000D03*
X1143730Y204000D03*
X1268730Y254000D03*
X1143730Y254000D03*
X1089660Y352590D03*
X964660Y352590D03*
X1089660Y402590D03*
X964660Y402590D03*
X1089660Y80810D03*
X964660Y80810D03*
X1089660Y130810D03*
X964660Y130810D03*
X1424940Y352590D03*
X1299940Y352590D03*
X1424940Y402590D03*
X1299940Y402590D03*
D11*
X313690Y618490D03*
X339090Y618490D03*
X364490Y618490D03*
X389890Y618490D03*
X415290Y618490D03*
X440690Y618490D03*
X1038860Y618490D03*
X1064260Y618490D03*
X1089660Y618490D03*
X1115060Y618490D03*
X1140460Y618490D03*
X1165860Y618490D03*
D12*
X543300Y514940D03*
X568700Y514940D03*
X543300Y489540D03*
X568700Y489540D03*
X543300Y464140D03*
X568700Y464140D03*
X543300Y438740D03*
X568700Y438740D03*
X543300Y413340D03*
X568700Y413340D03*
X543300Y387940D03*
X568700Y387940D03*
X543300Y362540D03*
X568700Y362540D03*
X543300Y337140D03*
X568700Y337140D03*
X543300Y311740D03*
X568700Y311740D03*
X543300Y286340D03*
X568700Y286340D03*
X543300Y260940D03*
X568700Y260940D03*
X543300Y235540D03*
X568700Y235540D03*
X543300Y210140D03*
X568700Y210140D03*
X543300Y184740D03*
X568700Y184740D03*
X543300Y159340D03*
X568700Y159340D03*
X543300Y133940D03*
X568700Y133940D03*
X543300Y108540D03*
X568700Y108540D03*
X543300Y83140D03*
X568700Y83140D03*
X797300Y514940D03*
X822700Y514940D03*
X797300Y489540D03*
X822700Y489540D03*
X797300Y464140D03*
X822700Y464140D03*
X797300Y438740D03*
X822700Y438740D03*
X797300Y413340D03*
X822700Y413340D03*
X797300Y387940D03*
X822700Y387940D03*
X797300Y362540D03*
X822700Y362540D03*
X797300Y337140D03*
X822700Y337140D03*
X797300Y311740D03*
X822700Y311740D03*
X797300Y286340D03*
X822700Y286340D03*
X797300Y260940D03*
X822700Y260940D03*
X797300Y235540D03*
X822700Y235540D03*
X797300Y210140D03*
X822700Y210140D03*
X797300Y184740D03*
X822700Y184740D03*
X797300Y159340D03*
X822700Y159340D03*
X797300Y133940D03*
X822700Y133940D03*
X797300Y108540D03*
X822700Y108540D03*
X797300Y83140D03*
X822700Y83140D03*
D10*
X1452880Y564350D03*
X1577880Y564350D03*
X1452880Y514350D03*
X1577880Y514350D03*
D13*
X339960Y143850D03*
X339960Y78850D03*
D14*
X1320800Y204470D03*
X1474470Y81280D03*
X297180Y236220D03*
X267970Y236220D03*
X391160Y309880D03*
X328930Y264160D03*
X364490Y295910D03*
X334010Y336550D03*
X297180Y316230D03*
X1131570Y80010D03*
X1144270Y353060D03*
X267970Y388620D03*
X1158240Y132080D03*
X1165860Y588010D03*
X1413510Y514350D03*
X340360Y21590D03*
X267970Y321310D03*
X267970Y306070D03*
X391160Y391160D03*
X321310Y275590D03*
X297180Y295910D03*
X276860Y511810D03*
X276860Y438150D03*
X1372870Y254000D03*
X1188720Y403860D03*
X1527810Y129540D03*
X1535430Y403860D03*
X415290Y593090D03*
X1140460Y588010D03*
X440690Y593090D03*
X276860Y474980D03*
M02*
