G04 EAGLE Gerber X2 export*
%TF.Part,Single*%
%TF.FileFunction,Copper,L4,Bot,Mixed*%
%TF.FilePolarity,Positive*%
%TF.GenerationSoftware,Autodesk,EAGLE,8.7.1*%
%TF.CreationDate,2018-04-20T19:54:14Z*%
G75*
%MOMM*%
%FSLAX34Y34*%
%LPD*%
%AMOC8*
5,1,8,0,0,1.08239X$1,22.5*%
G01*
%ADD10R,1.308000X1.308000*%
%ADD11C,1.524000*%
%ADD12R,1.524000X1.524000*%
%ADD13P,1.649562X8X292.500000*%
%ADD14C,1.108000*%
%ADD15C,0.812800*%

G36*
X589398Y222266D02*
X589398Y222266D01*
X589517Y222273D01*
X589555Y222286D01*
X589596Y222291D01*
X589706Y222334D01*
X589819Y222371D01*
X589854Y222393D01*
X589891Y222408D01*
X589987Y222478D01*
X590088Y222541D01*
X590116Y222571D01*
X590149Y222594D01*
X590225Y222686D01*
X590306Y222773D01*
X590326Y222808D01*
X590351Y222839D01*
X590402Y222947D01*
X590460Y223051D01*
X590470Y223091D01*
X590487Y223127D01*
X590509Y223244D01*
X590539Y223359D01*
X590543Y223420D01*
X590547Y223440D01*
X590545Y223460D01*
X590549Y223520D01*
X590549Y349251D01*
X868680Y349251D01*
X868798Y349266D01*
X868917Y349273D01*
X868955Y349286D01*
X868996Y349291D01*
X869106Y349334D01*
X869219Y349371D01*
X869254Y349393D01*
X869291Y349408D01*
X869387Y349478D01*
X869488Y349541D01*
X869516Y349571D01*
X869549Y349594D01*
X869625Y349686D01*
X869706Y349773D01*
X869726Y349808D01*
X869751Y349839D01*
X869802Y349947D01*
X869860Y350051D01*
X869870Y350091D01*
X869887Y350127D01*
X869909Y350244D01*
X869939Y350359D01*
X869943Y350420D01*
X869947Y350440D01*
X869945Y350460D01*
X869949Y350520D01*
X869949Y588011D01*
X1051560Y588011D01*
X1051678Y588026D01*
X1051797Y588033D01*
X1051835Y588046D01*
X1051876Y588051D01*
X1051986Y588094D01*
X1052099Y588131D01*
X1052134Y588153D01*
X1052171Y588168D01*
X1052267Y588238D01*
X1052368Y588301D01*
X1052396Y588331D01*
X1052429Y588354D01*
X1052505Y588446D01*
X1052586Y588533D01*
X1052606Y588568D01*
X1052631Y588599D01*
X1052682Y588707D01*
X1052740Y588811D01*
X1052750Y588851D01*
X1052767Y588887D01*
X1052789Y589004D01*
X1052819Y589119D01*
X1052823Y589180D01*
X1052827Y589200D01*
X1052825Y589220D01*
X1052829Y589280D01*
X1052829Y624840D01*
X1052814Y624958D01*
X1052807Y625077D01*
X1052794Y625115D01*
X1052789Y625156D01*
X1052746Y625266D01*
X1052709Y625379D01*
X1052687Y625414D01*
X1052672Y625451D01*
X1052603Y625547D01*
X1052539Y625648D01*
X1052509Y625676D01*
X1052486Y625709D01*
X1052394Y625785D01*
X1052307Y625866D01*
X1052272Y625886D01*
X1052241Y625911D01*
X1052133Y625962D01*
X1052029Y626020D01*
X1051989Y626030D01*
X1051953Y626047D01*
X1051836Y626069D01*
X1051721Y626099D01*
X1051661Y626103D01*
X1051641Y626107D01*
X1051620Y626105D01*
X1051560Y626109D01*
X1048375Y626109D01*
X1048335Y626104D01*
X1048296Y626107D01*
X1048178Y626084D01*
X1048059Y626069D01*
X1048022Y626055D01*
X1047983Y626047D01*
X1047875Y625996D01*
X1047763Y625952D01*
X1047731Y625929D01*
X1047695Y625912D01*
X1047603Y625836D01*
X1047506Y625766D01*
X1047481Y625735D01*
X1047450Y625710D01*
X1047380Y625613D01*
X1047303Y625521D01*
X1047286Y625485D01*
X1047263Y625452D01*
X1047219Y625341D01*
X1047168Y625233D01*
X1047160Y625194D01*
X1047146Y625157D01*
X1047130Y625038D01*
X1047108Y624921D01*
X1047110Y624881D01*
X1047105Y624841D01*
X1047120Y624722D01*
X1047128Y624603D01*
X1047140Y624565D01*
X1047145Y624526D01*
X1047189Y624414D01*
X1047226Y624301D01*
X1047247Y624267D01*
X1047262Y624230D01*
X1047348Y624094D01*
X1047550Y623815D01*
X1048276Y622390D01*
X1048719Y621029D01*
X1040130Y621029D01*
X1040012Y621014D01*
X1039893Y621007D01*
X1039855Y620994D01*
X1039815Y620989D01*
X1039704Y620946D01*
X1039591Y620909D01*
X1039557Y620887D01*
X1039519Y620872D01*
X1039423Y620802D01*
X1039322Y620739D01*
X1039294Y620709D01*
X1039262Y620685D01*
X1039186Y620594D01*
X1039104Y620507D01*
X1039085Y620472D01*
X1039059Y620441D01*
X1039008Y620333D01*
X1038951Y620229D01*
X1038940Y620189D01*
X1038923Y620153D01*
X1038901Y620036D01*
X1038871Y619921D01*
X1038867Y619860D01*
X1038863Y619840D01*
X1038865Y619820D01*
X1038861Y619760D01*
X1038861Y618489D01*
X1038859Y618489D01*
X1038859Y619760D01*
X1038844Y619878D01*
X1038837Y619997D01*
X1038824Y620035D01*
X1038819Y620075D01*
X1038775Y620186D01*
X1038739Y620299D01*
X1038717Y620334D01*
X1038702Y620371D01*
X1038632Y620467D01*
X1038569Y620568D01*
X1038539Y620596D01*
X1038515Y620629D01*
X1038424Y620704D01*
X1038337Y620786D01*
X1038302Y620806D01*
X1038270Y620831D01*
X1038163Y620882D01*
X1038058Y620940D01*
X1038019Y620950D01*
X1037983Y620967D01*
X1037866Y620989D01*
X1037751Y621019D01*
X1037690Y621023D01*
X1037670Y621027D01*
X1037650Y621025D01*
X1037590Y621029D01*
X1029001Y621029D01*
X1029444Y622390D01*
X1030170Y623815D01*
X1030372Y624094D01*
X1030391Y624129D01*
X1030417Y624159D01*
X1030468Y624268D01*
X1030525Y624373D01*
X1030535Y624411D01*
X1030552Y624447D01*
X1030575Y624564D01*
X1030605Y624681D01*
X1030605Y624721D01*
X1030612Y624760D01*
X1030605Y624879D01*
X1030605Y624999D01*
X1030595Y625037D01*
X1030592Y625077D01*
X1030555Y625191D01*
X1030526Y625307D01*
X1030506Y625342D01*
X1030494Y625379D01*
X1030430Y625481D01*
X1030373Y625586D01*
X1030345Y625615D01*
X1030324Y625648D01*
X1030237Y625730D01*
X1030155Y625817D01*
X1030121Y625839D01*
X1030092Y625866D01*
X1029988Y625924D01*
X1029887Y625988D01*
X1029849Y626000D01*
X1029814Y626020D01*
X1029698Y626049D01*
X1029584Y626087D01*
X1029545Y626089D01*
X1029506Y626099D01*
X1029345Y626109D01*
X838200Y626109D01*
X838082Y626094D01*
X837963Y626087D01*
X837925Y626074D01*
X837884Y626069D01*
X837774Y626026D01*
X837661Y625989D01*
X837626Y625967D01*
X837589Y625952D01*
X837493Y625882D01*
X837392Y625819D01*
X837364Y625789D01*
X837331Y625766D01*
X837256Y625674D01*
X837174Y625587D01*
X837154Y625552D01*
X837129Y625521D01*
X837078Y625413D01*
X837020Y625309D01*
X837010Y625269D01*
X836993Y625233D01*
X836971Y625116D01*
X836941Y625001D01*
X836937Y624941D01*
X836933Y624921D01*
X836935Y624900D01*
X836931Y624840D01*
X836931Y377189D01*
X579120Y377189D01*
X579002Y377174D01*
X578883Y377167D01*
X578845Y377154D01*
X578804Y377149D01*
X578694Y377106D01*
X578581Y377069D01*
X578546Y377047D01*
X578509Y377032D01*
X578413Y376963D01*
X578312Y376899D01*
X578284Y376869D01*
X578251Y376846D01*
X578176Y376754D01*
X578094Y376667D01*
X578074Y376632D01*
X578049Y376601D01*
X577998Y376493D01*
X577940Y376389D01*
X577930Y376349D01*
X577913Y376313D01*
X577891Y376196D01*
X577861Y376081D01*
X577857Y376021D01*
X577853Y376001D01*
X577855Y375980D01*
X577851Y375920D01*
X577851Y368284D01*
X577863Y368186D01*
X577866Y368087D01*
X577883Y368029D01*
X577891Y367969D01*
X577927Y367877D01*
X577955Y367782D01*
X577985Y367730D01*
X578008Y367673D01*
X578066Y367593D01*
X578116Y367508D01*
X578182Y367432D01*
X578194Y367416D01*
X578204Y367408D01*
X578223Y367387D01*
X578861Y366749D01*
X578861Y358331D01*
X578223Y357693D01*
X578162Y357615D01*
X578094Y357543D01*
X578067Y357494D01*
X578049Y357472D01*
X578045Y357464D01*
X578028Y357442D01*
X577988Y357351D01*
X577940Y357264D01*
X577928Y357215D01*
X577913Y357184D01*
X577911Y357172D01*
X577901Y357150D01*
X577886Y357052D01*
X577861Y356956D01*
X577857Y356890D01*
X577853Y356872D01*
X577854Y356855D01*
X577851Y356836D01*
X577853Y356824D01*
X577851Y356796D01*
X577851Y342884D01*
X577863Y342786D01*
X577866Y342687D01*
X577883Y342629D01*
X577891Y342569D01*
X577927Y342477D01*
X577955Y342382D01*
X577985Y342330D01*
X578008Y342273D01*
X578066Y342193D01*
X578116Y342108D01*
X578182Y342032D01*
X578194Y342016D01*
X578204Y342008D01*
X578223Y341987D01*
X578861Y341349D01*
X578861Y332931D01*
X578223Y332293D01*
X578162Y332215D01*
X578094Y332143D01*
X578071Y332101D01*
X578059Y332087D01*
X578054Y332076D01*
X578028Y332042D01*
X577988Y331951D01*
X577940Y331864D01*
X577925Y331806D01*
X577901Y331750D01*
X577886Y331652D01*
X577861Y331556D01*
X577855Y331456D01*
X577851Y331436D01*
X577853Y331424D01*
X577851Y331396D01*
X577851Y317484D01*
X577863Y317386D01*
X577866Y317287D01*
X577883Y317229D01*
X577891Y317169D01*
X577927Y317077D01*
X577955Y316982D01*
X577985Y316930D01*
X578008Y316873D01*
X578066Y316793D01*
X578116Y316708D01*
X578182Y316632D01*
X578194Y316616D01*
X578204Y316608D01*
X578223Y316587D01*
X578861Y315949D01*
X578861Y307531D01*
X578223Y306893D01*
X578162Y306815D01*
X578094Y306743D01*
X578065Y306690D01*
X578028Y306642D01*
X577988Y306551D01*
X577940Y306464D01*
X577925Y306406D01*
X577901Y306350D01*
X577886Y306252D01*
X577861Y306156D01*
X577855Y306056D01*
X577851Y306036D01*
X577853Y306024D01*
X577851Y305996D01*
X577851Y292084D01*
X577863Y291986D01*
X577866Y291887D01*
X577883Y291829D01*
X577891Y291769D01*
X577927Y291677D01*
X577955Y291582D01*
X577985Y291530D01*
X578008Y291473D01*
X578066Y291393D01*
X578116Y291308D01*
X578182Y291232D01*
X578194Y291216D01*
X578204Y291208D01*
X578223Y291187D01*
X578861Y290549D01*
X578861Y282131D01*
X578223Y281493D01*
X578162Y281415D01*
X578094Y281343D01*
X578065Y281290D01*
X578028Y281242D01*
X577988Y281151D01*
X577940Y281064D01*
X577925Y281006D01*
X577901Y280950D01*
X577886Y280852D01*
X577861Y280756D01*
X577855Y280656D01*
X577851Y280636D01*
X577853Y280624D01*
X577851Y280596D01*
X577851Y266684D01*
X577863Y266586D01*
X577866Y266487D01*
X577883Y266429D01*
X577891Y266369D01*
X577927Y266277D01*
X577955Y266182D01*
X577980Y266139D01*
X577981Y266135D01*
X577987Y266126D01*
X578008Y266073D01*
X578066Y265993D01*
X578116Y265908D01*
X578148Y265872D01*
X578151Y265866D01*
X578159Y265859D01*
X578182Y265832D01*
X578194Y265816D01*
X578204Y265808D01*
X578223Y265787D01*
X578861Y265149D01*
X578861Y256731D01*
X578223Y256093D01*
X578162Y256015D01*
X578094Y255943D01*
X578065Y255890D01*
X578028Y255842D01*
X577988Y255751D01*
X577940Y255664D01*
X577925Y255606D01*
X577901Y255550D01*
X577886Y255452D01*
X577861Y255356D01*
X577855Y255256D01*
X577851Y255236D01*
X577853Y255224D01*
X577851Y255196D01*
X577851Y250189D01*
X458469Y250189D01*
X458469Y426720D01*
X458454Y426838D01*
X458447Y426957D01*
X458434Y426995D01*
X458429Y427036D01*
X458386Y427146D01*
X458349Y427259D01*
X458327Y427294D01*
X458312Y427331D01*
X458243Y427427D01*
X458179Y427528D01*
X458149Y427556D01*
X458126Y427589D01*
X458034Y427665D01*
X457947Y427746D01*
X457912Y427766D01*
X457881Y427791D01*
X457773Y427842D01*
X457669Y427900D01*
X457629Y427910D01*
X457593Y427927D01*
X457476Y427949D01*
X457361Y427979D01*
X457301Y427983D01*
X457281Y427987D01*
X457260Y427985D01*
X457200Y427989D01*
X275589Y427989D01*
X275589Y430679D01*
X275586Y430709D01*
X275588Y430738D01*
X275566Y430866D01*
X275549Y430995D01*
X275539Y431022D01*
X275534Y431051D01*
X275480Y431170D01*
X275432Y431291D01*
X275415Y431314D01*
X275403Y431341D01*
X275322Y431443D01*
X275246Y431548D01*
X275223Y431567D01*
X275204Y431590D01*
X275101Y431668D01*
X275001Y431751D01*
X274974Y431763D01*
X274950Y431781D01*
X274806Y431852D01*
X273119Y432551D01*
X271261Y434409D01*
X270255Y436836D01*
X270255Y439464D01*
X271261Y441891D01*
X273119Y443749D01*
X274806Y444448D01*
X274831Y444463D01*
X274859Y444472D01*
X274969Y444541D01*
X275082Y444606D01*
X275103Y444626D01*
X275128Y444642D01*
X275217Y444737D01*
X275310Y444827D01*
X275326Y444852D01*
X275346Y444873D01*
X275409Y444987D01*
X275477Y445098D01*
X275485Y445126D01*
X275500Y445152D01*
X275520Y445231D01*
X275527Y445246D01*
X275535Y445286D01*
X275570Y445402D01*
X275572Y445431D01*
X275579Y445460D01*
X275585Y445547D01*
X275587Y445558D01*
X275586Y445569D01*
X275589Y445621D01*
X275589Y467509D01*
X275586Y467539D01*
X275588Y467568D01*
X275566Y467696D01*
X275549Y467825D01*
X275539Y467852D01*
X275534Y467881D01*
X275480Y468000D01*
X275432Y468121D01*
X275415Y468144D01*
X275403Y468171D01*
X275322Y468273D01*
X275246Y468378D01*
X275223Y468397D01*
X275204Y468420D01*
X275101Y468498D01*
X275001Y468581D01*
X274974Y468593D01*
X274950Y468611D01*
X274806Y468682D01*
X273119Y469381D01*
X271261Y471239D01*
X270255Y473666D01*
X270255Y476294D01*
X271261Y478721D01*
X273119Y480579D01*
X274806Y481278D01*
X274831Y481293D01*
X274859Y481302D01*
X274893Y481323D01*
X274923Y481335D01*
X274987Y481381D01*
X275082Y481436D01*
X275103Y481456D01*
X275128Y481472D01*
X275164Y481510D01*
X275180Y481521D01*
X275217Y481567D01*
X275310Y481657D01*
X275326Y481682D01*
X275346Y481703D01*
X275377Y481759D01*
X275383Y481766D01*
X275394Y481791D01*
X275409Y481817D01*
X275477Y481928D01*
X275485Y481956D01*
X275500Y481982D01*
X275518Y482054D01*
X275518Y482055D01*
X275532Y482108D01*
X275570Y482232D01*
X275572Y482261D01*
X275579Y482290D01*
X275589Y482451D01*
X275589Y504339D01*
X275586Y504369D01*
X275588Y504398D01*
X275566Y504526D01*
X275549Y504655D01*
X275539Y504682D01*
X275534Y504711D01*
X275480Y504830D01*
X275432Y504951D01*
X275415Y504974D01*
X275403Y505001D01*
X275322Y505103D01*
X275246Y505208D01*
X275223Y505227D01*
X275204Y505250D01*
X275101Y505328D01*
X275001Y505411D01*
X274974Y505423D01*
X274950Y505441D01*
X274806Y505512D01*
X273119Y506211D01*
X271261Y508069D01*
X270255Y510496D01*
X270255Y513124D01*
X271261Y515551D01*
X273119Y517409D01*
X274806Y518108D01*
X274831Y518123D01*
X274859Y518132D01*
X274969Y518201D01*
X275082Y518266D01*
X275103Y518286D01*
X275128Y518302D01*
X275217Y518397D01*
X275310Y518487D01*
X275326Y518512D01*
X275346Y518533D01*
X275409Y518647D01*
X275477Y518758D01*
X275485Y518786D01*
X275500Y518812D01*
X275532Y518938D01*
X275570Y519062D01*
X275572Y519091D01*
X275579Y519120D01*
X275589Y519281D01*
X275589Y603251D01*
X325120Y603251D01*
X325238Y603266D01*
X325357Y603273D01*
X325395Y603286D01*
X325436Y603291D01*
X325546Y603334D01*
X325659Y603371D01*
X325694Y603393D01*
X325731Y603408D01*
X325827Y603478D01*
X325928Y603541D01*
X325956Y603571D01*
X325989Y603594D01*
X326065Y603686D01*
X326146Y603773D01*
X326166Y603808D01*
X326191Y603839D01*
X326242Y603947D01*
X326300Y604051D01*
X326310Y604091D01*
X326327Y604127D01*
X326349Y604244D01*
X326379Y604359D01*
X326383Y604420D01*
X326387Y604440D01*
X326385Y604460D01*
X326389Y604520D01*
X326389Y629920D01*
X326374Y630038D01*
X326367Y630157D01*
X326354Y630195D01*
X326349Y630236D01*
X326306Y630346D01*
X326269Y630459D01*
X326247Y630494D01*
X326232Y630531D01*
X326163Y630627D01*
X326099Y630728D01*
X326069Y630756D01*
X326046Y630789D01*
X325954Y630865D01*
X325867Y630946D01*
X325832Y630966D01*
X325801Y630991D01*
X325693Y631042D01*
X325589Y631100D01*
X325549Y631110D01*
X325513Y631127D01*
X325396Y631149D01*
X325281Y631179D01*
X325221Y631183D01*
X325201Y631187D01*
X325180Y631185D01*
X325120Y631189D01*
X248920Y631189D01*
X248802Y631174D01*
X248683Y631167D01*
X248645Y631154D01*
X248604Y631149D01*
X248494Y631106D01*
X248381Y631069D01*
X248346Y631047D01*
X248309Y631032D01*
X248213Y630963D01*
X248112Y630899D01*
X248084Y630869D01*
X248051Y630846D01*
X247976Y630754D01*
X247894Y630667D01*
X247874Y630632D01*
X247849Y630601D01*
X247798Y630493D01*
X247740Y630389D01*
X247730Y630349D01*
X247713Y630313D01*
X247691Y630196D01*
X247661Y630081D01*
X247657Y630021D01*
X247653Y630001D01*
X247655Y629980D01*
X247651Y629920D01*
X247651Y401320D01*
X247666Y401202D01*
X247673Y401083D01*
X247686Y401045D01*
X247691Y401004D01*
X247734Y400894D01*
X247771Y400781D01*
X247793Y400746D01*
X247808Y400709D01*
X247878Y400613D01*
X247941Y400512D01*
X247971Y400484D01*
X247994Y400451D01*
X248086Y400376D01*
X248173Y400294D01*
X248208Y400274D01*
X248239Y400249D01*
X248347Y400198D01*
X248451Y400140D01*
X248491Y400130D01*
X248527Y400113D01*
X248644Y400091D01*
X248759Y400061D01*
X248820Y400057D01*
X248840Y400053D01*
X248860Y400055D01*
X248920Y400051D01*
X430531Y400051D01*
X430531Y223520D01*
X430546Y223402D01*
X430553Y223283D01*
X430566Y223245D01*
X430571Y223204D01*
X430614Y223094D01*
X430651Y222981D01*
X430673Y222946D01*
X430688Y222909D01*
X430758Y222813D01*
X430821Y222712D01*
X430851Y222684D01*
X430874Y222651D01*
X430966Y222576D01*
X431053Y222494D01*
X431088Y222474D01*
X431119Y222449D01*
X431227Y222398D01*
X431331Y222340D01*
X431371Y222330D01*
X431407Y222313D01*
X431524Y222291D01*
X431639Y222261D01*
X431700Y222257D01*
X431720Y222253D01*
X431740Y222255D01*
X431800Y222251D01*
X589280Y222251D01*
X589398Y222266D01*
G37*
%LPC*%
G36*
X818491Y352379D02*
X818491Y352379D01*
X812539Y358331D01*
X812539Y366749D01*
X818491Y372701D01*
X826909Y372701D01*
X832861Y366749D01*
X832861Y358331D01*
X826909Y352379D01*
X818491Y352379D01*
G37*
%LPD*%
%LPC*%
G36*
X539091Y225379D02*
X539091Y225379D01*
X533139Y231331D01*
X533139Y239749D01*
X539091Y245701D01*
X547509Y245701D01*
X553461Y239749D01*
X553461Y231331D01*
X547509Y225379D01*
X539091Y225379D01*
G37*
%LPD*%
%LPC*%
G36*
X799522Y364762D02*
X799522Y364762D01*
X799522Y372701D01*
X801509Y372701D01*
X807461Y366749D01*
X807461Y364762D01*
X799522Y364762D01*
G37*
%LPD*%
%LPC*%
G36*
X570922Y237762D02*
X570922Y237762D01*
X570922Y245701D01*
X572909Y245701D01*
X578861Y239749D01*
X578861Y237762D01*
X570922Y237762D01*
G37*
%LPD*%
%LPC*%
G36*
X787139Y364762D02*
X787139Y364762D01*
X787139Y366749D01*
X793091Y372701D01*
X795078Y372701D01*
X795078Y364762D01*
X787139Y364762D01*
G37*
%LPD*%
%LPC*%
G36*
X799522Y352379D02*
X799522Y352379D01*
X799522Y360318D01*
X807461Y360318D01*
X807461Y358331D01*
X801509Y352379D01*
X799522Y352379D01*
G37*
%LPD*%
%LPC*%
G36*
X558539Y237762D02*
X558539Y237762D01*
X558539Y239749D01*
X564491Y245701D01*
X566478Y245701D01*
X566478Y237762D01*
X558539Y237762D01*
G37*
%LPD*%
%LPC*%
G36*
X570922Y225379D02*
X570922Y225379D01*
X570922Y233318D01*
X578861Y233318D01*
X578861Y231331D01*
X572909Y225379D01*
X570922Y225379D01*
G37*
%LPD*%
%LPC*%
G36*
X793091Y352379D02*
X793091Y352379D01*
X787139Y358331D01*
X787139Y360318D01*
X795078Y360318D01*
X795078Y352379D01*
X793091Y352379D01*
G37*
%LPD*%
%LPC*%
G36*
X564491Y225379D02*
X564491Y225379D01*
X558539Y231331D01*
X558539Y233318D01*
X566478Y233318D01*
X566478Y225379D01*
X564491Y225379D01*
G37*
%LPD*%
%LPC*%
G36*
X316229Y621029D02*
X316229Y621029D01*
X316229Y628349D01*
X317590Y627906D01*
X319015Y627180D01*
X320309Y626240D01*
X321440Y625109D01*
X322380Y623815D01*
X323106Y622390D01*
X323549Y621029D01*
X316229Y621029D01*
G37*
%LPD*%
%LPC*%
G36*
X303831Y621029D02*
X303831Y621029D01*
X304274Y622390D01*
X305000Y623815D01*
X305940Y625109D01*
X307071Y626240D01*
X308365Y627180D01*
X309790Y627906D01*
X311151Y628349D01*
X311151Y621029D01*
X303831Y621029D01*
G37*
%LPD*%
%LPC*%
G36*
X1041399Y615951D02*
X1041399Y615951D01*
X1048719Y615951D01*
X1048276Y614590D01*
X1047550Y613165D01*
X1046610Y611871D01*
X1045479Y610740D01*
X1044185Y609800D01*
X1042760Y609074D01*
X1041399Y608631D01*
X1041399Y615951D01*
G37*
%LPD*%
%LPC*%
G36*
X316229Y615951D02*
X316229Y615951D01*
X323549Y615951D01*
X323106Y614590D01*
X322380Y613165D01*
X321440Y611871D01*
X320309Y610740D01*
X319015Y609800D01*
X317590Y609074D01*
X316229Y608631D01*
X316229Y615951D01*
G37*
%LPD*%
%LPC*%
G36*
X1034960Y609074D02*
X1034960Y609074D01*
X1033535Y609800D01*
X1032711Y610398D01*
X1032241Y610740D01*
X1031110Y611871D01*
X1030170Y613165D01*
X1029444Y614590D01*
X1029001Y615951D01*
X1036321Y615951D01*
X1036321Y608631D01*
X1034960Y609074D01*
G37*
%LPD*%
%LPC*%
G36*
X309790Y609074D02*
X309790Y609074D01*
X308365Y609800D01*
X307541Y610398D01*
X307071Y610740D01*
X305940Y611871D01*
X305000Y613165D01*
X304274Y614590D01*
X303831Y615951D01*
X311151Y615951D01*
X311151Y608631D01*
X309790Y609074D01*
G37*
%LPD*%
%LPC*%
G36*
X313689Y618489D02*
X313689Y618489D01*
X313689Y618491D01*
X313691Y618491D01*
X313691Y618489D01*
X313689Y618489D01*
G37*
%LPD*%
D10*
X1424940Y80810D03*
X1299940Y80810D03*
X1424940Y130810D03*
X1299940Y130810D03*
X1268730Y204000D03*
X1143730Y204000D03*
X1268730Y254000D03*
X1143730Y254000D03*
X1089660Y352590D03*
X964660Y352590D03*
X1089660Y402590D03*
X964660Y402590D03*
X1089660Y80810D03*
X964660Y80810D03*
X1089660Y130810D03*
X964660Y130810D03*
X1424940Y352590D03*
X1299940Y352590D03*
X1424940Y402590D03*
X1299940Y402590D03*
D11*
X313690Y618490D03*
X339090Y618490D03*
X364490Y618490D03*
X389890Y618490D03*
X415290Y618490D03*
X440690Y618490D03*
X1038860Y618490D03*
X1064260Y618490D03*
X1089660Y618490D03*
X1115060Y618490D03*
X1140460Y618490D03*
X1165860Y618490D03*
D12*
X543300Y514940D03*
D13*
X568700Y514940D03*
X543300Y489540D03*
X568700Y489540D03*
X543300Y464140D03*
X568700Y464140D03*
X543300Y438740D03*
X568700Y438740D03*
X543300Y413340D03*
X568700Y413340D03*
X543300Y387940D03*
X568700Y387940D03*
X543300Y362540D03*
X568700Y362540D03*
X543300Y337140D03*
X568700Y337140D03*
X543300Y311740D03*
X568700Y311740D03*
X543300Y286340D03*
X568700Y286340D03*
X543300Y260940D03*
X568700Y260940D03*
X543300Y235540D03*
X568700Y235540D03*
X543300Y210140D03*
X568700Y210140D03*
X543300Y184740D03*
X568700Y184740D03*
X543300Y159340D03*
X568700Y159340D03*
X543300Y133940D03*
X568700Y133940D03*
X543300Y108540D03*
X568700Y108540D03*
X543300Y83140D03*
X568700Y83140D03*
D12*
X797300Y514940D03*
D13*
X822700Y514940D03*
X797300Y489540D03*
X822700Y489540D03*
X797300Y464140D03*
X822700Y464140D03*
X797300Y438740D03*
X822700Y438740D03*
X797300Y413340D03*
X822700Y413340D03*
X797300Y387940D03*
X822700Y387940D03*
X797300Y362540D03*
X822700Y362540D03*
X797300Y337140D03*
X822700Y337140D03*
X797300Y311740D03*
X822700Y311740D03*
X797300Y286340D03*
X822700Y286340D03*
X797300Y260940D03*
X822700Y260940D03*
X797300Y235540D03*
X822700Y235540D03*
X797300Y210140D03*
X822700Y210140D03*
X797300Y184740D03*
X822700Y184740D03*
X797300Y159340D03*
X822700Y159340D03*
X797300Y133940D03*
X822700Y133940D03*
X797300Y108540D03*
X822700Y108540D03*
X797300Y83140D03*
X822700Y83140D03*
D10*
X1452880Y564350D03*
X1577880Y564350D03*
X1452880Y514350D03*
X1577880Y514350D03*
D14*
X339960Y143850D03*
X339960Y78850D03*
D15*
X1320800Y204470D03*
X1474470Y81280D03*
X297180Y236220D03*
X267970Y236220D03*
X391160Y309880D03*
X328930Y264160D03*
X364490Y295910D03*
X334010Y336550D03*
X297180Y316230D03*
X1131570Y80010D03*
X1144270Y353060D03*
X267970Y388620D03*
X1158240Y132080D03*
X1165860Y588010D03*
X1413510Y514350D03*
X340360Y21590D03*
X267970Y321310D03*
X267970Y306070D03*
X391160Y391160D03*
X321310Y275590D03*
X297180Y295910D03*
X276860Y511810D03*
X276860Y438150D03*
X1372870Y254000D03*
X1188720Y403860D03*
X1527810Y129540D03*
X1535430Y403860D03*
X415290Y593090D03*
X1140460Y588010D03*
X440690Y593090D03*
X276860Y474980D03*
M02*
