G04 EAGLE Gerber X2 export*
%TF.Part,Single*%
%TF.FileFunction,Copper,L1,Top,Mixed*%
%TF.FilePolarity,Positive*%
%TF.GenerationSoftware,Autodesk,EAGLE,8.7.1*%
%TF.CreationDate,2018-04-20T19:54:14Z*%
G75*
%MOMM*%
%FSLAX34Y34*%
%LPD*%
%AMOC8*
5,1,8,0,0,1.08239X$1,22.5*%
G01*
%ADD10C,0.150000*%
%ADD11R,1.000000X1.100000*%
%ADD12R,1.308000X1.308000*%
%ADD13R,0.949959X1.031241*%
%ADD14C,1.524000*%
%ADD15R,1.524000X1.524000*%
%ADD16P,1.649562X8X292.500000*%
%ADD17R,0.800000X0.800000*%
%ADD18R,1.031241X0.949959*%
%ADD19C,1.108000*%
%ADD20C,0.254000*%
%ADD21C,0.812800*%


D10*
X340410Y296320D02*
X344910Y296320D01*
X344910Y295820D01*
X340410Y295820D01*
X340410Y296320D01*
X340410Y300320D02*
X344910Y300320D01*
X344910Y299820D01*
X340410Y299820D01*
X340410Y300320D01*
X340410Y304320D02*
X344910Y304320D01*
X344910Y303820D01*
X340410Y303820D01*
X340410Y304320D01*
X340410Y308320D02*
X344910Y308320D01*
X344910Y307820D01*
X340410Y307820D01*
X340410Y308320D01*
X340410Y312320D02*
X344910Y312320D01*
X344910Y311820D01*
X340410Y311820D01*
X340410Y312320D01*
X340410Y316320D02*
X344910Y316320D01*
X344910Y315820D01*
X340410Y315820D01*
X340410Y316320D01*
X337410Y318820D02*
X337410Y323320D01*
X337910Y323320D01*
X337910Y318820D01*
X337410Y318820D01*
X337410Y320319D02*
X337910Y320319D01*
X337910Y321818D02*
X337410Y321818D01*
X337410Y323317D02*
X337910Y323317D01*
X333410Y323320D02*
X333410Y318820D01*
X333410Y323320D02*
X333910Y323320D01*
X333910Y318820D01*
X333410Y318820D01*
X333410Y320319D02*
X333910Y320319D01*
X333910Y321818D02*
X333410Y321818D01*
X333410Y323317D02*
X333910Y323317D01*
X329410Y323320D02*
X329410Y318820D01*
X329410Y323320D02*
X329910Y323320D01*
X329910Y318820D01*
X329410Y318820D01*
X329410Y320319D02*
X329910Y320319D01*
X329910Y321818D02*
X329410Y321818D01*
X329410Y323317D02*
X329910Y323317D01*
X325410Y323320D02*
X325410Y318820D01*
X325410Y323320D02*
X325910Y323320D01*
X325910Y318820D01*
X325410Y318820D01*
X325410Y320319D02*
X325910Y320319D01*
X325910Y321818D02*
X325410Y321818D01*
X325410Y323317D02*
X325910Y323317D01*
X321410Y323320D02*
X321410Y318820D01*
X321410Y323320D02*
X321910Y323320D01*
X321910Y318820D01*
X321410Y318820D01*
X321410Y320319D02*
X321910Y320319D01*
X321910Y321818D02*
X321410Y321818D01*
X321410Y323317D02*
X321910Y323317D01*
X317410Y323320D02*
X317410Y318820D01*
X317410Y323320D02*
X317910Y323320D01*
X317910Y318820D01*
X317410Y318820D01*
X317410Y320319D02*
X317910Y320319D01*
X317910Y321818D02*
X317410Y321818D01*
X317410Y323317D02*
X317910Y323317D01*
X314910Y316320D02*
X310410Y316320D01*
X314910Y316320D02*
X314910Y315820D01*
X310410Y315820D01*
X310410Y316320D01*
X310410Y312320D02*
X314910Y312320D01*
X314910Y311820D01*
X310410Y311820D01*
X310410Y312320D01*
X310410Y308320D02*
X314910Y308320D01*
X314910Y307820D01*
X310410Y307820D01*
X310410Y308320D01*
X310410Y304320D02*
X314910Y304320D01*
X314910Y303820D01*
X310410Y303820D01*
X310410Y304320D01*
X310410Y300320D02*
X314910Y300320D01*
X314910Y299820D01*
X310410Y299820D01*
X310410Y300320D01*
X310410Y296320D02*
X314910Y296320D01*
X314910Y295820D01*
X310410Y295820D01*
X310410Y296320D01*
X317410Y293320D02*
X317410Y288820D01*
X317410Y293320D02*
X317910Y293320D01*
X317910Y288820D01*
X317410Y288820D01*
X317410Y290319D02*
X317910Y290319D01*
X317910Y291818D02*
X317410Y291818D01*
X317410Y293317D02*
X317910Y293317D01*
X321410Y293320D02*
X321410Y288820D01*
X321410Y293320D02*
X321910Y293320D01*
X321910Y288820D01*
X321410Y288820D01*
X321410Y290319D02*
X321910Y290319D01*
X321910Y291818D02*
X321410Y291818D01*
X321410Y293317D02*
X321910Y293317D01*
X325410Y293320D02*
X325410Y288820D01*
X325410Y293320D02*
X325910Y293320D01*
X325910Y288820D01*
X325410Y288820D01*
X325410Y290319D02*
X325910Y290319D01*
X325910Y291818D02*
X325410Y291818D01*
X325410Y293317D02*
X325910Y293317D01*
X329410Y293320D02*
X329410Y288820D01*
X329410Y293320D02*
X329910Y293320D01*
X329910Y288820D01*
X329410Y288820D01*
X329410Y290319D02*
X329910Y290319D01*
X329910Y291818D02*
X329410Y291818D01*
X329410Y293317D02*
X329910Y293317D01*
X333410Y293320D02*
X333410Y288820D01*
X333410Y293320D02*
X333910Y293320D01*
X333910Y288820D01*
X333410Y288820D01*
X333410Y290319D02*
X333910Y290319D01*
X333910Y291818D02*
X333410Y291818D01*
X333410Y293317D02*
X333910Y293317D01*
X337410Y293320D02*
X337410Y288820D01*
X337410Y293320D02*
X337910Y293320D01*
X337910Y288820D01*
X337410Y288820D01*
X337410Y290319D02*
X337910Y290319D01*
X337910Y291818D02*
X337410Y291818D01*
X337410Y293317D02*
X337910Y293317D01*
D11*
X267970Y364100D03*
X267970Y347100D03*
X391160Y347100D03*
X391160Y364100D03*
X267970Y264550D03*
X267970Y281550D03*
D12*
X1424940Y80810D03*
X1299940Y80810D03*
X1424940Y130810D03*
X1299940Y130810D03*
X1268730Y204000D03*
X1143730Y204000D03*
X1268730Y254000D03*
X1143730Y254000D03*
X1089660Y352590D03*
X964660Y352590D03*
X1089660Y402590D03*
X964660Y402590D03*
X1089660Y80810D03*
X964660Y80810D03*
X1089660Y130810D03*
X964660Y130810D03*
X1424940Y352590D03*
X1299940Y352590D03*
X1424940Y402590D03*
X1299940Y402590D03*
D13*
X1485646Y402590D03*
X1469644Y402590D03*
X1492631Y130810D03*
X1476629Y130810D03*
X1328801Y254000D03*
X1312799Y254000D03*
X1154811Y402590D03*
X1138809Y402590D03*
X1133221Y130810D03*
X1117219Y130810D03*
D14*
X313690Y618490D03*
X339090Y618490D03*
X364490Y618490D03*
X389890Y618490D03*
X415290Y618490D03*
X440690Y618490D03*
X1038860Y618490D03*
X1064260Y618490D03*
X1089660Y618490D03*
X1115060Y618490D03*
X1140460Y618490D03*
X1165860Y618490D03*
D15*
X543300Y514940D03*
D16*
X568700Y514940D03*
X543300Y489540D03*
X568700Y489540D03*
X543300Y464140D03*
X568700Y464140D03*
X543300Y438740D03*
X568700Y438740D03*
X543300Y413340D03*
X568700Y413340D03*
X543300Y387940D03*
X568700Y387940D03*
X543300Y362540D03*
X568700Y362540D03*
X543300Y337140D03*
X568700Y337140D03*
X543300Y311740D03*
X568700Y311740D03*
X543300Y286340D03*
X568700Y286340D03*
X543300Y260940D03*
X568700Y260940D03*
X543300Y235540D03*
X568700Y235540D03*
X543300Y210140D03*
X568700Y210140D03*
X543300Y184740D03*
X568700Y184740D03*
X543300Y159340D03*
X568700Y159340D03*
X543300Y133940D03*
X568700Y133940D03*
X543300Y108540D03*
X568700Y108540D03*
X543300Y83140D03*
X568700Y83140D03*
D15*
X797300Y514940D03*
D16*
X822700Y514940D03*
X797300Y489540D03*
X822700Y489540D03*
X797300Y464140D03*
X822700Y464140D03*
X797300Y438740D03*
X822700Y438740D03*
X797300Y413340D03*
X822700Y413340D03*
X797300Y387940D03*
X822700Y387940D03*
X797300Y362540D03*
X822700Y362540D03*
X797300Y337140D03*
X822700Y337140D03*
X797300Y311740D03*
X822700Y311740D03*
X797300Y286340D03*
X822700Y286340D03*
X797300Y260940D03*
X822700Y260940D03*
X797300Y235540D03*
X822700Y235540D03*
X797300Y210140D03*
X822700Y210140D03*
X797300Y184740D03*
X822700Y184740D03*
X797300Y159340D03*
X822700Y159340D03*
X797300Y133940D03*
X822700Y133940D03*
X797300Y108540D03*
X822700Y108540D03*
X797300Y83140D03*
X822700Y83140D03*
D17*
X376300Y528130D03*
X349300Y528130D03*
X376300Y457010D03*
X349300Y457010D03*
X376300Y492570D03*
X349300Y492570D03*
D13*
X310261Y474980D03*
X294259Y474980D03*
X310261Y511810D03*
X294259Y511810D03*
X310261Y438150D03*
X294259Y438150D03*
D12*
X1452880Y564350D03*
X1577880Y564350D03*
X1452880Y514350D03*
X1577880Y514350D03*
D18*
X391160Y282321D03*
X391160Y266319D03*
D13*
X320929Y236220D03*
X336931Y236220D03*
D19*
X339960Y143850D03*
X339960Y78850D03*
D20*
X1268730Y204000D02*
X1320330Y204000D01*
X1320800Y204470D01*
D21*
X1320800Y204470D03*
D20*
X1424940Y80810D02*
X1474000Y80810D01*
X1474470Y81280D01*
D21*
X1474470Y81280D03*
D20*
X320929Y236220D02*
X297180Y236220D01*
D21*
X297180Y236220D03*
D20*
X267970Y236220D02*
X267970Y264550D01*
D21*
X267970Y236220D03*
D20*
X391160Y282321D02*
X391160Y309880D01*
D21*
X391160Y309880D03*
D20*
X329660Y291070D02*
X329660Y264890D01*
X328930Y264160D01*
D21*
X328930Y264160D03*
D20*
X342660Y296070D02*
X364330Y296070D01*
X364490Y295910D01*
D21*
X364490Y295910D03*
D20*
X333660Y321070D02*
X333660Y336200D01*
X334010Y336550D01*
D21*
X334010Y336550D03*
D20*
X312660Y316070D02*
X297340Y316070D01*
X297180Y316230D01*
D21*
X297180Y316230D03*
D20*
X1089660Y80810D02*
X1130770Y80810D01*
X1131570Y80010D01*
D21*
X1131570Y80010D03*
D20*
X1143800Y352590D02*
X1089660Y352590D01*
X1143800Y352590D02*
X1144270Y353060D01*
D21*
X1144270Y353060D03*
D20*
X267970Y364100D02*
X267970Y388620D01*
D21*
X267970Y388620D03*
D20*
X339960Y78850D02*
X339999Y78848D01*
X340038Y78842D01*
X340076Y78833D01*
X340113Y78820D01*
X340149Y78803D01*
X340182Y78783D01*
X340214Y78759D01*
X340243Y78733D01*
X340269Y78704D01*
X340293Y78672D01*
X340313Y78639D01*
X340330Y78603D01*
X340343Y78566D01*
X340352Y78528D01*
X340358Y78489D01*
X340360Y78450D01*
X1133221Y130810D02*
X1156970Y130810D01*
X1158240Y132080D01*
D21*
X1158240Y132080D03*
D20*
X1165860Y588010D02*
X1165860Y618490D01*
D21*
X1165860Y588010D03*
D20*
X1413510Y514350D02*
X1452880Y514350D01*
D21*
X1413510Y514350D03*
D20*
X339960Y78850D02*
X339960Y21990D01*
X340360Y21590D01*
D21*
X340360Y21590D03*
D20*
X267970Y321310D02*
X267970Y347100D01*
D21*
X267970Y321310D03*
D20*
X267970Y306070D02*
X267970Y281550D01*
D21*
X267970Y306070D03*
D20*
X391160Y364100D02*
X391160Y391160D01*
D21*
X391160Y391160D03*
D20*
X321660Y291070D02*
X321660Y275940D01*
X321310Y275590D01*
D21*
X321310Y275590D03*
D20*
X312660Y296070D02*
X297340Y296070D01*
X297180Y295910D01*
D21*
X297180Y295910D03*
D20*
X294259Y511810D02*
X276860Y511810D01*
D21*
X276860Y511810D03*
D20*
X276860Y438150D02*
X294259Y438150D01*
D21*
X276860Y438150D03*
D20*
X1328801Y254000D02*
X1372870Y254000D01*
D21*
X1372870Y254000D03*
D20*
X1187450Y402590D02*
X1154811Y402590D01*
X1187450Y402590D02*
X1188720Y403860D01*
D21*
X1188720Y403860D03*
D20*
X1492631Y130810D02*
X1493901Y129540D01*
X1527810Y129540D01*
D21*
X1527810Y129540D03*
D20*
X1534160Y402590D02*
X1485646Y402590D01*
X1534160Y402590D02*
X1535430Y403860D01*
D21*
X1535430Y403860D03*
D20*
X415290Y593090D02*
X415290Y618490D01*
D21*
X415290Y593090D03*
D20*
X1140460Y588010D02*
X1140460Y618490D01*
D21*
X1140460Y588010D03*
D20*
X440690Y593090D02*
X440690Y618490D01*
D21*
X440690Y593090D03*
D20*
X1089660Y130810D02*
X1117219Y130810D01*
X1138809Y402590D02*
X1089660Y402590D01*
X1268730Y254000D02*
X1312799Y254000D01*
X1424940Y130810D02*
X1476629Y130810D01*
X1469644Y402590D02*
X1424940Y402590D01*
X1143730Y254000D02*
X843280Y254000D01*
X835660Y261620D01*
X823380Y261620D01*
X822700Y260940D01*
X937260Y402590D02*
X964660Y402590D01*
X937260Y402590D02*
X845820Y311150D01*
X823290Y311150D01*
X822700Y311740D01*
X322580Y511810D02*
X310261Y511810D01*
X322580Y511810D02*
X338900Y528130D01*
X349300Y528130D01*
X321310Y474980D02*
X310261Y474980D01*
X321310Y474980D02*
X339090Y492760D01*
X340873Y492760D01*
X339280Y492570D02*
X339090Y492760D01*
X339280Y492570D02*
X349300Y492570D01*
X294259Y474980D02*
X276860Y474980D01*
D21*
X276860Y474980D03*
D20*
X310261Y438150D02*
X320040Y438150D01*
X338900Y457010D01*
X349300Y457010D01*
X1360640Y564350D02*
X1452880Y564350D01*
X1263650Y467360D02*
X913130Y467360D01*
X833710Y387940D01*
X822700Y387940D01*
X1263650Y467360D02*
X1360640Y564350D01*
X597490Y438740D02*
X568700Y438740D01*
X597490Y438740D02*
X608330Y449580D01*
X608330Y513080D01*
X549910Y571500D01*
X365760Y571500D01*
X339090Y598170D01*
X339090Y618490D01*
X568700Y387940D02*
X594950Y387940D01*
X552450Y580390D02*
X412750Y580390D01*
X389890Y603250D01*
X389890Y618490D01*
X615950Y408940D02*
X594950Y387940D01*
X615950Y408940D02*
X615950Y516890D01*
X552450Y580390D01*
X568700Y464140D02*
X594950Y464140D01*
X601980Y471170D01*
X601980Y509270D01*
X548640Y562610D01*
X334356Y629920D02*
X327660Y623225D01*
X334356Y629920D02*
X343825Y629920D01*
X327660Y602416D02*
X367466Y562610D01*
X327660Y602416D02*
X327660Y623225D01*
X355255Y618490D02*
X364490Y618490D01*
X355255Y618490D02*
X343825Y629920D01*
X367466Y562610D02*
X548640Y562610D01*
X699180Y159340D02*
X797300Y159340D01*
X699180Y159340D02*
X683260Y175260D01*
X683260Y499110D01*
X740410Y556260D01*
X1094395Y629920D02*
X1101090Y623225D01*
X1094395Y629920D02*
X1084926Y629920D01*
X1073496Y618490D02*
X1064260Y618490D01*
X1073496Y618490D02*
X1084926Y629920D01*
X1101090Y588446D02*
X1068904Y556260D01*
X1101090Y588446D02*
X1101090Y623225D01*
X1068904Y556260D02*
X740410Y556260D01*
X728390Y210140D02*
X797300Y210140D01*
X728390Y210140D02*
X701040Y237490D01*
X701040Y490220D01*
X755650Y544830D01*
X1074420Y544830D01*
X1115060Y585470D01*
X1115060Y618490D01*
X797300Y133940D02*
X687750Y133940D01*
X665480Y156210D01*
X665480Y508000D01*
X726440Y568960D02*
X1074420Y568960D01*
X1089660Y584200D01*
X1089660Y618490D01*
X726440Y568960D02*
X665480Y508000D01*
X568700Y210140D02*
X559465Y210140D01*
X548035Y198710D01*
X447085Y198710D01*
X391160Y254635D02*
X391160Y266319D01*
X391160Y254635D02*
X447085Y198710D01*
X362411Y266319D02*
X337660Y291070D01*
X362411Y266319D02*
X391160Y266319D01*
X559465Y184740D02*
X568700Y184740D01*
X559465Y184740D02*
X548035Y173310D01*
X417240Y173310D01*
X354330Y236220D01*
X336931Y236220D01*
X336931Y282850D01*
X333660Y286121D01*
X333660Y291070D01*
X325660Y321070D02*
X325660Y340900D01*
X331860Y347100D02*
X391160Y347100D01*
X331860Y347100D02*
X325660Y340900D01*
X1231900Y402590D02*
X1299940Y402590D01*
X1231900Y402590D02*
X1116330Y287020D01*
X823380Y287020D01*
X822700Y286340D01*
X543300Y108540D02*
X449625Y108540D01*
X413385Y144780D01*
X340890Y144780D01*
X339960Y143850D01*
X375873Y528058D02*
X376300Y528130D01*
X375873Y528130D01*
X375873Y528203D02*
X376300Y528130D01*
X563928Y514940D02*
X568700Y514940D01*
X563928Y514940D02*
X552498Y503510D01*
X421050Y503510D01*
X396240Y528320D01*
X384128Y528320D01*
X383938Y528130D01*
X376300Y528130D01*
X559465Y489540D02*
X568700Y489540D01*
X559465Y489540D02*
X548035Y478110D01*
X410890Y478110D01*
X396240Y492760D01*
X384128Y492760D01*
X383938Y492570D01*
X376300Y492570D01*
X559465Y413340D02*
X568700Y413340D01*
X559465Y413340D02*
X548035Y401910D01*
X448990Y401910D01*
X393700Y457200D01*
X384128Y457200D01*
X383938Y457010D01*
X376300Y457010D01*
X933450Y130810D02*
X964660Y130810D01*
X933450Y130810D02*
X828720Y235540D01*
X822700Y235540D01*
X1184370Y15240D02*
X1299940Y130810D01*
X992200Y15240D02*
X822700Y184740D01*
X992200Y15240D02*
X1184370Y15240D01*
X1038860Y595630D02*
X1038860Y618490D01*
M02*
