M48
;GenerationSoftware,Autodesk,EAGLE,8.7.1*%
;CreationDate,2018-04-20T19:54:13Z*%
FMAT,2
ICI,OFF
METRIC,TZ,000.000
T5C0.305
T4C0.600
T3C0.800
T2C0.889
T1C1.016
%
G90
M71
T1
X111506Y61849
X114046Y61849
X116586Y61849
X31369Y61849
X33909Y61849
X36449Y61849
X38989Y61849
X41529Y61849
X44069Y61849
X103886Y61849
X106426Y61849
X108966Y61849
T2
X56870Y26094
X54330Y23554
X56870Y23554
X54330Y21014
X56870Y21014
X54330Y18474
X56870Y18474
X54330Y15934
X56870Y15934
X54330Y13394
X56870Y13394
X54330Y10854
X56870Y10854
X54330Y8314
X56870Y8314
X79730Y51494
X82270Y51494
X56870Y43874
X79730Y48954
X82270Y48954
X79730Y46414
X82270Y46414
X79730Y43874
X82270Y43874
X79730Y41334
X82270Y41334
X79730Y38794
X82270Y38794
X79730Y36254
X82270Y36254
X79730Y33714
X82270Y33714
X79730Y31174
X82270Y31174
X79730Y28634
X82270Y28634
X79730Y26094
X82270Y26094
X79730Y23554
X82270Y23554
X82270Y21014
X79730Y18474
X82270Y18474
X79730Y15934
X82270Y15934
X79730Y13394
X82270Y13394
X79730Y10854
X82270Y10854
X79730Y8314
X82270Y8314
X54330Y51494
X56870Y51494
X54330Y48954
X56870Y48954
X54330Y46414
X56870Y46414
X54330Y43874
X79730Y21014
X54330Y41334
X56870Y41334
X54330Y38794
X56870Y38794
X54330Y36254
X56870Y36254
X54330Y33714
X56870Y33714
X54330Y31174
X56870Y31174
X54330Y28634
X56870Y28634
X54330Y26094
T3
X129994Y13081
X129994Y40259
X114373Y20400
X142494Y8081
X129994Y8081
X142494Y13081
X126873Y20400
X126873Y25400
X114373Y25400
X108966Y35259
X96466Y35259
X108966Y40259
X96466Y40259
X108966Y8081
X96466Y8081
X108966Y13081
X96466Y13081
X142494Y35259
X129994Y35259
X142494Y40259
X145288Y56435
X157788Y56435
X145288Y51435
X157788Y51435
T4
X33996Y14385
X33996Y7885
T5
X41529Y59309
X114046Y58801
X33401Y33655
X27686Y47498
X147447Y8128
X29718Y23622
X26797Y23622
X26797Y30607
X39116Y30988
X44069Y59309
X32893Y26416
X36449Y29591
X29718Y31623
X113157Y8001
X114427Y35306
X26797Y38862
X115824Y13208
X116586Y58801
X141351Y51435
X34036Y2159
X26797Y32131
X39116Y39116
X32131Y27559
X27686Y43815
X132080Y20447
X29718Y29591
X27686Y51181
X137287Y25400
X118872Y40386
X152781Y12954
X153543Y40386
M30