G04 EAGLE Gerber X2 export*
%TF.Part,Single*%
%TF.FileFunction,Paste,Top*%
%TF.FilePolarity,Positive*%
%TF.GenerationSoftware,Autodesk,EAGLE,8.7.1*%
%TF.CreationDate,2018-04-20T19:54:14Z*%
G75*
%MOMM*%
%FSLAX34Y34*%
%LPD*%
%AMOC8*
5,1,8,0,0,1.08239X$1,22.5*%
G01*
%ADD10C,0.150000*%
%ADD11R,1.000000X1.100000*%
%ADD12R,0.949959X1.031241*%
%ADD13R,0.800000X0.800000*%
%ADD14R,1.031241X0.949959*%


D10*
X340410Y296320D02*
X344910Y296320D01*
X344910Y295820D01*
X340410Y295820D01*
X340410Y296320D01*
X340410Y300320D02*
X344910Y300320D01*
X344910Y299820D01*
X340410Y299820D01*
X340410Y300320D01*
X340410Y304320D02*
X344910Y304320D01*
X344910Y303820D01*
X340410Y303820D01*
X340410Y304320D01*
X340410Y308320D02*
X344910Y308320D01*
X344910Y307820D01*
X340410Y307820D01*
X340410Y308320D01*
X340410Y312320D02*
X344910Y312320D01*
X344910Y311820D01*
X340410Y311820D01*
X340410Y312320D01*
X340410Y316320D02*
X344910Y316320D01*
X344910Y315820D01*
X340410Y315820D01*
X340410Y316320D01*
X337410Y318820D02*
X337410Y323320D01*
X337910Y323320D01*
X337910Y318820D01*
X337410Y318820D01*
X337410Y320319D02*
X337910Y320319D01*
X337910Y321818D02*
X337410Y321818D01*
X337410Y323317D02*
X337910Y323317D01*
X333410Y323320D02*
X333410Y318820D01*
X333410Y323320D02*
X333910Y323320D01*
X333910Y318820D01*
X333410Y318820D01*
X333410Y320319D02*
X333910Y320319D01*
X333910Y321818D02*
X333410Y321818D01*
X333410Y323317D02*
X333910Y323317D01*
X329410Y323320D02*
X329410Y318820D01*
X329410Y323320D02*
X329910Y323320D01*
X329910Y318820D01*
X329410Y318820D01*
X329410Y320319D02*
X329910Y320319D01*
X329910Y321818D02*
X329410Y321818D01*
X329410Y323317D02*
X329910Y323317D01*
X325410Y323320D02*
X325410Y318820D01*
X325410Y323320D02*
X325910Y323320D01*
X325910Y318820D01*
X325410Y318820D01*
X325410Y320319D02*
X325910Y320319D01*
X325910Y321818D02*
X325410Y321818D01*
X325410Y323317D02*
X325910Y323317D01*
X321410Y323320D02*
X321410Y318820D01*
X321410Y323320D02*
X321910Y323320D01*
X321910Y318820D01*
X321410Y318820D01*
X321410Y320319D02*
X321910Y320319D01*
X321910Y321818D02*
X321410Y321818D01*
X321410Y323317D02*
X321910Y323317D01*
X317410Y323320D02*
X317410Y318820D01*
X317410Y323320D02*
X317910Y323320D01*
X317910Y318820D01*
X317410Y318820D01*
X317410Y320319D02*
X317910Y320319D01*
X317910Y321818D02*
X317410Y321818D01*
X317410Y323317D02*
X317910Y323317D01*
X314910Y316320D02*
X310410Y316320D01*
X314910Y316320D02*
X314910Y315820D01*
X310410Y315820D01*
X310410Y316320D01*
X310410Y312320D02*
X314910Y312320D01*
X314910Y311820D01*
X310410Y311820D01*
X310410Y312320D01*
X310410Y308320D02*
X314910Y308320D01*
X314910Y307820D01*
X310410Y307820D01*
X310410Y308320D01*
X310410Y304320D02*
X314910Y304320D01*
X314910Y303820D01*
X310410Y303820D01*
X310410Y304320D01*
X310410Y300320D02*
X314910Y300320D01*
X314910Y299820D01*
X310410Y299820D01*
X310410Y300320D01*
X310410Y296320D02*
X314910Y296320D01*
X314910Y295820D01*
X310410Y295820D01*
X310410Y296320D01*
X317410Y293320D02*
X317410Y288820D01*
X317410Y293320D02*
X317910Y293320D01*
X317910Y288820D01*
X317410Y288820D01*
X317410Y290319D02*
X317910Y290319D01*
X317910Y291818D02*
X317410Y291818D01*
X317410Y293317D02*
X317910Y293317D01*
X321410Y293320D02*
X321410Y288820D01*
X321410Y293320D02*
X321910Y293320D01*
X321910Y288820D01*
X321410Y288820D01*
X321410Y290319D02*
X321910Y290319D01*
X321910Y291818D02*
X321410Y291818D01*
X321410Y293317D02*
X321910Y293317D01*
X325410Y293320D02*
X325410Y288820D01*
X325410Y293320D02*
X325910Y293320D01*
X325910Y288820D01*
X325410Y288820D01*
X325410Y290319D02*
X325910Y290319D01*
X325910Y291818D02*
X325410Y291818D01*
X325410Y293317D02*
X325910Y293317D01*
X329410Y293320D02*
X329410Y288820D01*
X329410Y293320D02*
X329910Y293320D01*
X329910Y288820D01*
X329410Y288820D01*
X329410Y290319D02*
X329910Y290319D01*
X329910Y291818D02*
X329410Y291818D01*
X329410Y293317D02*
X329910Y293317D01*
X333410Y293320D02*
X333410Y288820D01*
X333410Y293320D02*
X333910Y293320D01*
X333910Y288820D01*
X333410Y288820D01*
X333410Y290319D02*
X333910Y290319D01*
X333910Y291818D02*
X333410Y291818D01*
X333410Y293317D02*
X333910Y293317D01*
X337410Y293320D02*
X337410Y288820D01*
X337410Y293320D02*
X337910Y293320D01*
X337910Y288820D01*
X337410Y288820D01*
X337410Y290319D02*
X337910Y290319D01*
X337910Y291818D02*
X337410Y291818D01*
X337410Y293317D02*
X337910Y293317D01*
D11*
X267970Y364100D03*
X267970Y347100D03*
X391160Y347100D03*
X391160Y364100D03*
X267970Y264550D03*
X267970Y281550D03*
D12*
X1485646Y402590D03*
X1469644Y402590D03*
X1492631Y130810D03*
X1476629Y130810D03*
X1328801Y254000D03*
X1312799Y254000D03*
X1154811Y402590D03*
X1138809Y402590D03*
X1133221Y130810D03*
X1117219Y130810D03*
D13*
X376300Y528130D03*
X349300Y528130D03*
X376300Y457010D03*
X349300Y457010D03*
X376300Y492570D03*
X349300Y492570D03*
D12*
X310261Y474980D03*
X294259Y474980D03*
X310261Y511810D03*
X294259Y511810D03*
X310261Y438150D03*
X294259Y438150D03*
D14*
X391160Y282321D03*
X391160Y266319D03*
D12*
X320929Y236220D03*
X336931Y236220D03*
M02*
