G04 EAGLE Gerber X2 export*
%TF.Part,Single*%
%TF.FileFunction,Soldermask,Top,1*%
%TF.FilePolarity,Negative*%
%TF.GenerationSoftware,Autodesk,EAGLE,8.7.1*%
%TF.CreationDate,2018-04-20T19:54:14Z*%
G75*
%MOMM*%
%FSLAX34Y34*%
%LPD*%
%AMOC8*
5,1,8,0,0,1.08239X$1,22.5*%
G01*
%ADD10C,0.264300*%
%ADD11R,1.152400X1.252400*%
%ADD12R,1.460400X1.460400*%
%ADD13R,1.102359X1.183641*%
%ADD14C,1.676400*%
%ADD15R,1.676400X1.676400*%
%ADD16P,1.814519X8X292.500000*%
%ADD17R,0.952400X0.952400*%
%ADD18R,1.183641X1.102359*%
%ADD19C,1.260400*%


D10*
X340219Y296511D02*
X345101Y296511D01*
X345101Y295629D01*
X340219Y295629D01*
X340219Y296511D01*
X340219Y300511D02*
X345101Y300511D01*
X345101Y299629D01*
X340219Y299629D01*
X340219Y300511D01*
X340219Y304511D02*
X345101Y304511D01*
X345101Y303629D01*
X340219Y303629D01*
X340219Y304511D01*
X340219Y308511D02*
X345101Y308511D01*
X345101Y307629D01*
X340219Y307629D01*
X340219Y308511D01*
X340219Y312511D02*
X345101Y312511D01*
X345101Y311629D01*
X340219Y311629D01*
X340219Y312511D01*
X340219Y316511D02*
X345101Y316511D01*
X345101Y315629D01*
X340219Y315629D01*
X340219Y316511D01*
X337219Y318629D02*
X337219Y323511D01*
X338101Y323511D01*
X338101Y318629D01*
X337219Y318629D01*
X337219Y321271D02*
X338101Y321271D01*
X333219Y323511D02*
X333219Y318629D01*
X333219Y323511D02*
X334101Y323511D01*
X334101Y318629D01*
X333219Y318629D01*
X333219Y321271D02*
X334101Y321271D01*
X329219Y323511D02*
X329219Y318629D01*
X329219Y323511D02*
X330101Y323511D01*
X330101Y318629D01*
X329219Y318629D01*
X329219Y321271D02*
X330101Y321271D01*
X325219Y323511D02*
X325219Y318629D01*
X325219Y323511D02*
X326101Y323511D01*
X326101Y318629D01*
X325219Y318629D01*
X325219Y321271D02*
X326101Y321271D01*
X321219Y323511D02*
X321219Y318629D01*
X321219Y323511D02*
X322101Y323511D01*
X322101Y318629D01*
X321219Y318629D01*
X321219Y321271D02*
X322101Y321271D01*
X317219Y323511D02*
X317219Y318629D01*
X317219Y323511D02*
X318101Y323511D01*
X318101Y318629D01*
X317219Y318629D01*
X317219Y321271D02*
X318101Y321271D01*
X315101Y316511D02*
X310219Y316511D01*
X315101Y316511D02*
X315101Y315629D01*
X310219Y315629D01*
X310219Y316511D01*
X310219Y312511D02*
X315101Y312511D01*
X315101Y311629D01*
X310219Y311629D01*
X310219Y312511D01*
X310219Y308511D02*
X315101Y308511D01*
X315101Y307629D01*
X310219Y307629D01*
X310219Y308511D01*
X310219Y304511D02*
X315101Y304511D01*
X315101Y303629D01*
X310219Y303629D01*
X310219Y304511D01*
X310219Y300511D02*
X315101Y300511D01*
X315101Y299629D01*
X310219Y299629D01*
X310219Y300511D01*
X310219Y296511D02*
X315101Y296511D01*
X315101Y295629D01*
X310219Y295629D01*
X310219Y296511D01*
X317219Y293511D02*
X317219Y288629D01*
X317219Y293511D02*
X318101Y293511D01*
X318101Y288629D01*
X317219Y288629D01*
X317219Y291271D02*
X318101Y291271D01*
X321219Y293511D02*
X321219Y288629D01*
X321219Y293511D02*
X322101Y293511D01*
X322101Y288629D01*
X321219Y288629D01*
X321219Y291271D02*
X322101Y291271D01*
X325219Y293511D02*
X325219Y288629D01*
X325219Y293511D02*
X326101Y293511D01*
X326101Y288629D01*
X325219Y288629D01*
X325219Y291271D02*
X326101Y291271D01*
X329219Y293511D02*
X329219Y288629D01*
X329219Y293511D02*
X330101Y293511D01*
X330101Y288629D01*
X329219Y288629D01*
X329219Y291271D02*
X330101Y291271D01*
X333219Y293511D02*
X333219Y288629D01*
X333219Y293511D02*
X334101Y293511D01*
X334101Y288629D01*
X333219Y288629D01*
X333219Y291271D02*
X334101Y291271D01*
X337219Y293511D02*
X337219Y288629D01*
X337219Y293511D02*
X338101Y293511D01*
X338101Y288629D01*
X337219Y288629D01*
X337219Y291271D02*
X338101Y291271D01*
D11*
X267970Y364100D03*
X267970Y347100D03*
X391160Y347100D03*
X391160Y364100D03*
X267970Y264550D03*
X267970Y281550D03*
D12*
X1424940Y80810D03*
X1299940Y80810D03*
X1424940Y130810D03*
X1299940Y130810D03*
X1268730Y204000D03*
X1143730Y204000D03*
X1268730Y254000D03*
X1143730Y254000D03*
X1089660Y352590D03*
X964660Y352590D03*
X1089660Y402590D03*
X964660Y402590D03*
X1089660Y80810D03*
X964660Y80810D03*
X1089660Y130810D03*
X964660Y130810D03*
X1424940Y352590D03*
X1299940Y352590D03*
X1424940Y402590D03*
X1299940Y402590D03*
D13*
X1485646Y402590D03*
X1469644Y402590D03*
X1492631Y130810D03*
X1476629Y130810D03*
X1328801Y254000D03*
X1312799Y254000D03*
X1154811Y402590D03*
X1138809Y402590D03*
X1133221Y130810D03*
X1117219Y130810D03*
D14*
X313690Y618490D03*
X339090Y618490D03*
X364490Y618490D03*
X389890Y618490D03*
X415290Y618490D03*
X440690Y618490D03*
X1038860Y618490D03*
X1064260Y618490D03*
X1089660Y618490D03*
X1115060Y618490D03*
X1140460Y618490D03*
X1165860Y618490D03*
D15*
X543300Y514940D03*
D16*
X568700Y514940D03*
X543300Y489540D03*
X568700Y489540D03*
X543300Y464140D03*
X568700Y464140D03*
X543300Y438740D03*
X568700Y438740D03*
X543300Y413340D03*
X568700Y413340D03*
X543300Y387940D03*
X568700Y387940D03*
X543300Y362540D03*
X568700Y362540D03*
X543300Y337140D03*
X568700Y337140D03*
X543300Y311740D03*
X568700Y311740D03*
X543300Y286340D03*
X568700Y286340D03*
X543300Y260940D03*
X568700Y260940D03*
X543300Y235540D03*
X568700Y235540D03*
X543300Y210140D03*
X568700Y210140D03*
X543300Y184740D03*
X568700Y184740D03*
X543300Y159340D03*
X568700Y159340D03*
X543300Y133940D03*
X568700Y133940D03*
X543300Y108540D03*
X568700Y108540D03*
X543300Y83140D03*
X568700Y83140D03*
D15*
X797300Y514940D03*
D16*
X822700Y514940D03*
X797300Y489540D03*
X822700Y489540D03*
X797300Y464140D03*
X822700Y464140D03*
X797300Y438740D03*
X822700Y438740D03*
X797300Y413340D03*
X822700Y413340D03*
X797300Y387940D03*
X822700Y387940D03*
X797300Y362540D03*
X822700Y362540D03*
X797300Y337140D03*
X822700Y337140D03*
X797300Y311740D03*
X822700Y311740D03*
X797300Y286340D03*
X822700Y286340D03*
X797300Y260940D03*
X822700Y260940D03*
X797300Y235540D03*
X822700Y235540D03*
X797300Y210140D03*
X822700Y210140D03*
X797300Y184740D03*
X822700Y184740D03*
X797300Y159340D03*
X822700Y159340D03*
X797300Y133940D03*
X822700Y133940D03*
X797300Y108540D03*
X822700Y108540D03*
X797300Y83140D03*
X822700Y83140D03*
D17*
X376300Y528130D03*
X349300Y528130D03*
X376300Y457010D03*
X349300Y457010D03*
X376300Y492570D03*
X349300Y492570D03*
D13*
X310261Y474980D03*
X294259Y474980D03*
X310261Y511810D03*
X294259Y511810D03*
X310261Y438150D03*
X294259Y438150D03*
D12*
X1452880Y564350D03*
X1577880Y564350D03*
X1452880Y514350D03*
X1577880Y514350D03*
D18*
X391160Y282321D03*
X391160Y266319D03*
D13*
X320929Y236220D03*
X336931Y236220D03*
D19*
X339960Y143850D03*
X339960Y78850D03*
M02*
